<svg xmlns="http://www.w3.org/2000/svg" width="61" height="94" viewBox="0 0 61 94" fill="none"><path d="M48.9647 38.402C45.1335 33.1955 41.5643 28.3329 38.0278 23.5275C31.4132 31.3373 24.8887 39.0406 18.1268 47.0222C20.509 50.0757 22.9322 53.1702 25.3226 56.281C27.9995 59.7602 30.7992 63.1657 33.2961 66.7677C36.6115 71.5485 37.3237 76.6567 34.524 82.0188C32.4529 85.9892 29.8497 89.4765 26.0103 91.916C23.1451 93.7334 20.0915 94.5275 16.9807 92.6938C13.698 90.7618 12.5192 87.5773 12.7402 83.9426C13.1332 77.6964 16.2603 72.9483 21.2294 69.3218C21.9416 68.806 22.6702 68.3231 23.3824 67.8073C23.4479 67.7582 23.4479 67.6108 23.5462 67.2424C18.5361 60.7916 13.3705 54.2425 8.32776 47.6116C5.79819 44.288 3.45692 40.8088 1.03377 37.4033C-0.357911 35.4468 -0.415209 33.6212 1.29573 31.7383C3.72707 29.0532 6.05199 26.2535 8.40966 23.4947C13.6898 17.2895 18.9618 11.0843 24.2338 4.87083C25.7974 3.0289 27.23 1.04785 30.0379 0C31.2331 1.32619 32.6166 2.70142 33.82 4.22407C39.8042 11.8374 45.813 19.4261 51.6662 27.1376C55.3255 31.9594 58.9111 36.8712 60.2864 42.9536C62.3166 51.9341 58.7801 59.3262 51.2733 63.7632C47.2865 66.1209 43.1115 64.9994 40.7293 61.0126C39.1166 58.3193 38.3307 55.3969 39.1166 52.1551C40.5164 46.3428 43.3653 41.5865 48.9647 38.402ZM51.6826 39.2206C50.119 40.0147 48.8665 40.4896 47.8023 41.2263C43.3571 44.329 41.245 48.946 40.5082 54.0543C40.0907 56.9195 41.3842 59.7684 43.5536 61.7986C45.0107 63.1575 46.91 63.8451 49.0384 62.8382C54.5969 60.2022 58.1744 56.0926 58.9602 49.8465C59.6561 44.3125 58.1253 39.2861 54.8835 34.9146C47.2047 24.5835 39.3458 14.3833 31.5115 4.15862C29.6777 1.76821 29.0719 1.8255 27.0008 4.24046C19.6085 12.8361 12.2163 21.4236 4.84857 30.0438C0.837272 34.7427 0.83729 34.8574 4.61119 39.8019C9.22009 45.8434 13.8945 51.8276 18.4788 57.8937C20.9838 61.2092 23.3415 64.6229 25.6419 67.8319C25.2571 68.4705 25.1671 68.6751 25.0279 68.8306C24.8805 68.9943 24.7086 69.1499 24.5203 69.2481C18.266 72.3426 15.7937 77.8437 14.7623 84.3437C14.3611 86.906 15.1716 88.9198 16.9971 90.5653C18.8227 92.2107 20.9593 92.3663 23.1614 91.4167C24.1684 90.9828 25.1752 90.4835 26.043 89.8368C29.776 87.0616 32.3792 83.3613 33.9182 79.039C34.9743 76.0755 34.9579 72.891 33.1487 70.1076C30.8811 66.6039 28.5562 63.1247 26.0348 59.7929C22.7193 55.4132 19.191 51.1973 15.8592 47.0386C23.3006 38.2138 30.5046 29.659 37.8886 20.8996C42.9396 26.5891 46.9099 33.0481 51.6744 39.2206H51.6826Z" fill="black" fill-opacity="0.1"></path></svg>