<svg xmlns="http://www.w3.org/2000/svg" width="153" height="153" viewBox="0 0 153 153" fill="none"><path d="M86.5772 105.274C86.4367 108.102 86.3719 110.591 86.1825 113.069C86.0319 115.082 85.3869 115.695 83.3886 115.762C82.4005 115.794 81.3885 115.672 80.4137 115.499C75.2723 114.565 70.1486 113.577 65.0097 112.637C63.6236 112.383 62.195 111.999 60.8225 112.112C59.6703 112.204 58.4372 112.735 57.4876 113.417C56.3514 114.238 56.5056 115.814 57.7486 116.554C58.7214 117.127 59.8734 117.593 60.9903 117.71C67.1781 118.339 73.3772 118.886 79.5804 119.38C80.8072 119.479 82.0635 119.266 83.299 119.097C84.7545 118.893 85.2508 118.484 86.2096 116.988C87.0139 118.219 86.554 119.108 85.4804 119.618C84.5239 120.066 83.4503 120.385 82.4008 120.491C77.1585 121.007 71.947 120.415 66.7511 119.789C64.0424 119.465 61.3669 118.864 58.6607 118.535C58.12 118.468 57.4966 119.064 56.9056 119.355C56.9031 119.551 56.895 119.745 56.8899 119.947C57.663 120.305 58.4026 120.839 59.2166 120.992C64.5951 122.002 69.9801 122.954 75.3748 123.855C76.341 124.018 77.3655 123.907 78.358 123.837C81.1125 123.65 81.7333 123.339 83.8139 121.098C83.7118 121.759 83.7388 122.112 83.6033 122.389C83.0021 123.642 82.4181 124.828 82.218 126.287C81.9733 128.106 80.372 128.991 78.6815 129.378C77.6689 129.609 77.1523 130.077 76.7322 131.012C74.8544 135.165 70.8496 136.8 66.4394 135.272C65.4205 134.915 64.4449 134.436 63.4775 133.953C60.2501 132.341 59.1739 130.229 59.7442 126.709C54.8853 123.829 53.871 121.099 56.4254 117.778C54.8845 114.334 55.0121 113.604 57.9818 111.251C58.7432 110.651 58.972 110.069 58.9396 109.156C58.8405 106.169 58.8022 103.184 58.808 100.192C58.8099 99.1307 58.6772 98.2865 57.6609 97.6451C52.2789 94.2646 49.1078 89.316 48.113 83.1236C46.3765 72.2923 48.719 62.4402 57.022 54.9708C64.9483 47.8441 74.4973 45.7171 84.903 48.5683C93.409 50.8925 99.8738 56.0479 104.101 63.7253C108.357 71.4572 108.556 79.5269 105.226 87.7366C102.452 94.5843 97.8475 99.6847 91.3079 103.057C89.7677 103.854 88.1634 104.54 86.5746 105.28L86.5772 105.274ZM86.5999 81.4891C87.2319 81.3738 87.7148 81.2574 88.2022 81.2043C90.8401 80.9028 92.1016 81.8961 92.4821 84.4957C92.8221 86.8451 91.7856 88.6106 89.9273 89.7705C87.613 91.209 85.1637 92.4693 82.6977 93.6333C80.6241 94.6116 79.0833 95.9528 78.4255 98.1934C78.0289 99.5478 77.5487 100.877 77.2521 102.251C76.4823 105.848 75.785 109.466 75.0409 113.184C78.2858 113.702 81.3527 114.927 84.8756 114.096C84.9856 111.643 85.2439 109.251 85.1628 106.872C85.0998 104.923 86.1413 103.983 87.6421 103.257C88.8352 102.68 90.0928 102.229 91.2623 101.6C99.076 97.4024 103.84 90.7833 105.624 82.2379C108.369 69.067 101.44 57.9992 90.3581 52.0847C82.4959 47.8878 74.3465 47.5395 66.0521 50.8948C60.4116 53.1801 55.8528 56.6408 52.8897 62.1211C50.4242 66.675 48.9333 71.4903 48.8246 76.6129C48.7038 82.4514 49.8173 88.0795 53.9065 92.5894C55.717 94.586 57.9283 96.2172 60.0559 98.1022C60.1045 102.093 60.1535 106.288 60.208 110.574C62.786 110.96 65.0393 111.297 67.5759 111.683C67.8766 106.983 68.2456 102.444 68.4487 97.8962C68.641 93.5475 67.6104 89.5166 65.0831 85.8807C64.1427 84.5326 63.3389 83.0367 62.7412 81.5072C61.3897 78.0217 62.794 75.8005 66.4637 75.3581C69.561 74.9905 72.475 76.0898 75.4439 76.6157C76.7464 76.8453 77.8913 77.9139 79.1472 78.6256C83.3912 76.8566 84.6756 77.3161 86.6189 81.4775L86.5999 81.4891ZM73.823 112.919C74.7704 108.41 75.6431 104.37 76.4546 100.315C77.2614 96.2855 79.2716 93.3446 83.3153 91.9049C85.1007 91.2693 86.8025 90.3295 88.4254 89.3396C89.9426 88.4163 91.1452 87.1293 91.2146 85.174C91.2727 83.5809 90.5649 82.6265 89.2506 82.4663C87.7867 82.2912 86.8327 83.0129 86.4754 84.5761C86.402 84.896 86.4632 85.3803 86.2711 85.5158C85.711 85.9164 85.0533 86.3806 84.4266 86.3963C84.1424 86.4074 83.5882 85.4154 83.5974 84.8819C83.6057 84.3208 84.0252 83.6509 84.4577 83.232C85.3766 82.3512 85.2095 81.4638 84.6984 80.5257C83.6637 78.6029 81.99 78.5279 80.1134 80.2851C80.3577 81.1675 80.812 82.052 80.7712 82.918C80.7397 83.6317 80.2825 84.6177 79.7113 84.9246C79.1294 85.2401 77.963 85.1281 77.4535 84.7149C76.9669 84.3259 76.7644 83.2654 76.8622 82.5552C76.9864 81.6122 77.521 80.7234 77.8884 79.7843C76.7864 78.3885 75.6323 77.3837 73.6545 77.5829C73.7628 78.0687 73.8437 78.3785 73.8945 78.6947C74.0396 79.5856 74.3286 80.4888 74.2745 81.369C74.1887 82.7722 73.2255 83.5576 71.9245 83.9413C70.6071 84.331 69.1906 83.9804 68.512 83.0804C67.7332 82.059 68.021 81.0421 68.5804 80.0559C69.1316 79.0727 69.7026 78.1055 70.3096 77.046C68.7038 76.3695 67.2562 76.4674 65.7986 76.8806C63.582 77.5068 62.9114 78.6593 63.8086 80.7906C64.4502 82.3133 65.2969 83.7608 66.2053 85.1486C68.5348 88.7268 69.8075 92.6318 69.7314 96.8915C69.6684 100.286 69.3981 103.673 69.1747 107.061C69.0709 108.694 68.8674 110.322 68.7013 112.089C70.5113 112.384 72.113 112.644 73.8204 112.925L73.823 112.919ZM56.6237 121.695C56.8218 123.822 58.3442 124.576 59.8813 125.077C64.758 126.685 69.7014 128.12 74.8599 128.415C76.3046 128.5 77.8139 128.152 79.2365 127.77C80.5741 127.41 81.3423 126.384 81.584 124.836C72.9467 126.024 65.0092 123.398 56.6263 121.69L56.6237 121.695ZM60.9734 127.17C60.4846 128.958 60.9816 130.162 61.8798 131.204C64.0688 133.764 69.0247 135.157 72.1954 134C74.0814 133.309 75.6585 132.169 76.023 130.193C70.9619 129.174 66.0427 128.186 60.979 127.172L60.9734 127.17ZM71.7865 78.1325C70.2714 79.1247 69.6247 80.4312 69.3032 81.9906C70.4129 82.9884 71.4573 83.0848 72.4466 82.155C73.4035 81.251 73.1603 79.7496 71.7809 78.1299L71.7865 78.1325ZM78.8819 81.3409C78.4978 81.9931 78.2208 82.2528 78.2096 82.5266C78.192 82.9609 78.3128 83.4049 78.4548 83.8179C78.4819 83.8917 79.0624 83.9022 79.1014 83.8181C79.2746 83.4152 79.419 82.9716 79.4284 82.5404C79.4371 82.2721 79.1913 81.9948 78.8819 81.3409Z" fill="black" fill-opacity="0.1"></path><path d="M139.612 75.3049C135.634 75.7067 132.049 76.0113 128.473 76.4427C124.927 76.8677 121.611 78.543 117.568 78.6898C122.711 75.3638 136.121 73.2915 139.612 75.3049Z" fill="black" fill-opacity="0.1"></path><path d="M92.6784 20.7615C90.9908 26.8672 89.3752 32.7001 87.7596 38.533C87.0343 36.9851 87.4703 35.5604 87.794 34.1723C88.6206 30.6281 89.5416 27.1005 90.4795 23.5808C90.7907 22.425 91.1108 21.1917 92.6728 20.7589L92.6784 20.7615Z" fill="black" fill-opacity="0.1"></path><path d="M109.877 97.2722C112.362 98.1659 121.293 105.431 122.183 107.212C120.971 107.242 120.979 107.239 117.898 104.62C116.516 103.447 115.151 102.25 113.702 101.163C112.258 100.078 110.832 99.015 109.877 97.2722Z" fill="black" fill-opacity="0.1"></path><path d="M40.0627 51.4567C36.1725 48.8224 32.2766 46.1854 28.3101 43.4954C28.8859 42.5032 29.7182 42.9981 30.3485 43.3856C32.3126 44.5958 34.2347 45.8819 36.1434 47.1822C37.0287 47.7832 37.8828 48.4515 38.6828 49.1628C39.324 49.7324 39.858 50.4156 40.4404 51.0533C40.3172 51.1867 40.1941 51.3202 40.0653 51.4511L40.0627 51.4567Z" fill="black" fill-opacity="0.1"></path><path d="M112.089 51.4888C115.461 47.8862 120.771 45.7267 124.548 46.1237C124.296 46.4903 124.129 46.998 123.917 47.0153C120.59 47.2902 117.76 48.8434 114.898 50.3479C114.008 50.8134 113.025 51.1131 112.086 51.4806L112.089 51.4888Z" fill="black" fill-opacity="0.1"></path><path d="M37.5096 76.1923C33.8049 78.8239 27.0424 81.4738 25.2476 81.1316C26.4555 79.745 33.7103 76.738 37.5096 76.1923Z" fill="black" fill-opacity="0.1"></path><path d="M56.0688 25.2609C58.9224 26.6521 62.6124 32.9917 62.6359 36.508C60.5351 32.9065 58.4372 29.3131 56.0688 25.2609Z" fill="black" fill-opacity="0.1"></path></svg>