<svg xmlns="http://www.w3.org/2000/svg" width="95" height="99" viewBox="0 0 95 99" fill="none"><path d="M27.4218 4.03589C29.6649 4.53525 31.9488 4.88726 34.1346 5.57492C41.5841 7.89983 48.9928 10.3312 56.4178 12.7298C57.6703 13.1391 58.8982 13.6548 60.1589 14.0232C64.6368 15.333 66.8799 18.4766 65.9712 24.0351C65.038 29.7655 63.5562 35.4141 62.1727 41.0708C58.6935 55.2578 55.2307 69.4529 51.5469 83.5906C50.6464 87.0535 49.1401 90.4099 47.5274 93.6271C45.5463 97.5729 41.8379 98.7927 37.7611 98.1296C33.8808 97.4992 30.1069 96.214 26.2757 95.2562C22.5509 94.3229 18.8016 93.4961 15.085 92.5383C11.7941 91.6869 8.3722 91.0975 5.30232 89.7222C1.13548 87.8557 -0.57548 85.0233 0.169477 80.5781C1.5939 72.0479 4.13987 63.8125 6.08003 55.4215C8.63417 44.4027 11.2702 33.4084 13.9553 22.4224C14.7903 19.0087 15.7808 15.6277 16.886 12.2959C18.6215 7.0812 22.379 4.30604 27.4299 4.04407L27.4218 4.03589ZM1.16823 81.3722C0.906272 83.6234 2.7236 86.6278 4.91754 87.6101C7.02142 88.5516 9.18266 89.4193 11.4093 89.976C16.1983 91.1794 21.061 92.0881 25.8582 93.2505C29.5912 94.1592 33.2832 95.2398 36.9834 96.2958C40.6918 97.3519 45.3007 95.7801 46.9298 91.3431C48.3624 87.43 49.7213 83.476 50.761 79.4484C54.0846 66.5631 57.2609 53.6369 60.4454 40.7106C61.8371 35.0621 63.2206 29.3971 64.3994 23.6995C65.3654 19.0414 62.7049 16.4546 59.2421 15.4067C53.1269 13.5566 47.0281 11.6901 40.9211 9.81544C37.139 8.65298 33.3978 7.34316 29.583 6.29531C24.3601 4.85452 20.1769 7.94895 18.8589 12.1158C17.5 16.4136 16.0346 20.6951 14.9622 25.0666C11.0409 40.9644 7.27524 56.895 3.42767 72.8092C2.73183 75.6745 1.92138 78.5069 1.16823 81.3558V81.3722Z" fill="black" fill-opacity="0.1"></path><path d="M89.6786 37.649C94.5495 22.5943 93.3297 9.43069 77.8657 0.523957C79.372 -0.499334 80.4035 0.196505 81.3531 0.753175C85.5363 3.20907 88.8027 6.5491 90.9065 10.9615C94.2547 17.9854 95.0816 25.2549 92.7812 32.7453C92.2245 34.5627 91.2258 36.2491 90.4317 38.001C90.1779 37.8782 89.9242 37.7636 89.6786 37.6408V37.649Z" fill="black" fill-opacity="0.1"></path><path d="M75.2383 9.45532C80.7968 13.7941 83.6947 23.1838 81.4599 28.3739C80.7886 25.0093 80.3138 21.6284 79.4215 18.3702C78.5455 15.1939 76.016 12.7053 75.2465 9.45532H75.2383Z" fill="black" fill-opacity="0.1"></path><path d="M23.7954 11.1826C24.7778 11.2645 25.6701 11.199 26.4723 11.4282C37.1473 14.4735 47.8059 17.5434 58.4563 20.6542C60.5357 21.26 60.7322 21.6775 60.1673 24.1416C58.6774 30.5597 57.1629 36.9777 55.5747 43.3713C52.292 56.584 48.9602 69.7886 45.6366 82.9931C45.5875 83.1978 45.4401 83.3779 45.3418 83.5662C43.1643 83.8117 13.2433 76.8615 9.25652 75.1588C7.97126 72.0725 8.79807 68.9044 9.34655 65.81C11.9252 51.1647 16.5505 37.0432 20.6355 22.7908C21.7243 19.0006 22.7066 15.1857 23.7954 11.1826ZM43.9338 82.0844C50.1309 62.2326 53.8065 42.3725 58.7838 22.7008C47.4785 18.7877 36.5415 15.2594 25.4491 13.09C25.0643 13.5075 24.9415 13.5812 24.917 13.6713C20.8402 28.3903 16.6406 43.0847 12.7684 57.8611C11.3686 63.1986 10.7219 68.7407 9.80499 73.7753C21.4459 76.6078 32.6203 79.3256 43.9338 82.0762V82.0844Z" fill="black" fill-opacity="0.1"></path><path d="M28.6741 90.1069C27.5362 89.6484 26.2919 89.1491 25.0476 88.6497C25.0885 88.4778 25.1295 88.2977 25.1622 88.1258C26.0709 88.0685 26.9796 88.0112 27.8064 87.9539C29.6237 83.8771 27.4052 83.3859 24.0079 82.5591C21.9941 82.0761 21.0445 83.1321 20.6188 86.2757C21.6503 86.8078 22.7308 87.3726 24.057 88.0603C21.7485 88.8298 20.1931 88.486 19.2762 87.1843C18.3103 85.8172 18.6295 84.5074 19.4318 83.1976C20.7989 80.9627 22.2888 80.3815 24.9821 81.0692C30.3441 82.4363 31.302 84.4337 29.0998 89.6239C29.0589 89.7139 28.9525 89.7876 28.6577 90.0987L28.6741 90.1069Z" fill="black" fill-opacity="0.1"></path></svg>