<svg xmlns="http://www.w3.org/2000/svg" width="119" height="196" viewBox="0 0 119 196" fill="none"><path d="M52.726 167.714C53.0049 163.897 53.2177 160.066 53.5774 156.256C53.9223 152.535 54.4141 148.828 54.8839 144.762C49.2468 143.617 43.441 143.419 37.7893 142.303C32.2109 141.209 26.3464 141.826 20.6726 139.595C20.4231 131.675 21.9938 123.924 22.537 116.078C18.6175 115.578 14.8301 115.094 10.8005 114.58C10.6684 105.281 12.6575 96.3113 13.0171 87.2098C15.3219 86.4465 21.436 87.1511 24.3279 88.4136C23.2489 97.1701 22.1847 105.816 21.1644 114.47C21.1424 114.639 21.7296 114.889 22.0525 115.109C23.1388 112.863 25.0619 97.449 25.1573 90.2045C26.0821 90.2045 27.029 90.1164 27.9538 90.2192C35.2937 91.0559 42.6263 91.9661 49.9735 92.7808C55.0747 93.3533 60.1833 93.8524 65.2918 94.3222C71.6702 94.9094 78.0559 95.4305 84.449 95.959C85.594 96.0544 86.5995 96.2966 87.0913 97.4783C82.4598 97.17 77.8357 96.8985 73.2116 96.5608C67.9929 96.1865 62.7669 95.9076 57.5703 95.3131C49.8414 94.4323 42.1418 93.2872 34.4276 92.3184C32.0054 92.0174 29.5612 91.9294 26.7868 91.7165C25.1133 107.35 23.4618 122.772 21.7736 138.574C41.5326 141.687 61.4751 143.558 81.3075 146.487C81.6084 143.676 81.8873 141.041 82.1736 138.406C82.8342 132.225 83.4874 126.053 84.148 119.872C84.6251 115.366 85.0435 110.852 85.6087 106.36C85.983 103.365 86.5555 100.4 87.0399 97.4196C88.2657 97.0966 88.0822 98.0141 88.0235 98.638C87.6859 102.161 87.3115 105.684 86.9225 109.207C86.4748 113.23 85.9903 117.245 85.5426 121.26C84.8013 127.924 84.0893 134.581 83.348 141.246C83.0984 143.47 82.8048 145.694 82.5259 148.006C78.5403 147.507 74.8704 147.052 71.0463 146.575C70.3857 153.643 69.7545 160.477 69.1159 167.31C68.0443 165.607 67.9269 163.794 68.103 161.93C68.492 157.812 68.8811 153.695 69.2407 149.577C69.2921 149.012 69.182 148.432 69.1306 147.639C64.8221 147.199 60.6383 146.766 56.1243 146.303C55.4197 153.041 54.7371 159.544 54.0325 166.253C58.9355 167.376 63.8165 166.987 68.2939 168.807C63.0238 169.248 57.8492 168.639 52.7039 167.648L52.7553 167.699L52.726 167.714ZM11.9528 113.2C14.7493 113.604 17.2082 113.964 19.7405 114.323C20.6947 105.714 21.5975 97.5224 22.5296 89.0962C20.0267 88.8319 17.5312 88.5677 14.6613 88.2594C13.7511 96.6269 12.8777 104.708 11.9528 113.2Z" fill="black" fill-opacity="0.1"></path><path d="M52.6817 167.662C53.012 168.477 53.335 169.292 53.5479 169.82C58.3261 170.657 62.8695 171.45 67.523 172.257V183.81C68.1616 183.861 69.0864 183.891 70.0039 184.023C73.3068 184.493 75.2152 186.665 75.2152 189.799C75.2152 191.921 74.239 193.286 72.316 194.174C70.0773 195.201 67.7432 195.363 65.3651 195.165C61.2474 194.827 57.1224 194.541 53.0341 193.99C49.9293 193.572 47.0814 192.5 46.1272 188.596C44.8501 191.605 42.5747 192.405 39.9617 192.324C36.7101 192.222 33.4292 192.119 30.2217 191.627C27.5573 191.216 24.9443 191.223 22.2872 191.26C18.5145 191.311 17.3475 189.432 16.8264 186.606C16.2025 183.23 18.7641 180.03 22.1918 179.758C23.858 179.626 25.5388 179.736 27.5353 179.736C27.7041 178.423 27.8435 177.197 28.0197 175.971C28.3794 173.439 28.7243 170.906 29.128 168.382C29.3409 167.053 30.185 166.613 31.4915 166.84C35.3596 167.523 39.2424 168.169 43.1179 168.844C43.9252 168.983 43.9253 169.005 44.6372 167.596C39.5727 167.016 34.5669 166.444 29.6345 165.871C30.2217 158.267 30.7868 150.942 31.374 143.257C37.1579 144.006 42.6775 143.786 48.131 145.643C48.131 146.355 48.175 147.015 48.131 147.676C47.742 152.593 47.3897 157.511 46.8906 162.422C46.7291 164.051 46.2006 165.644 45.8116 167.251C45.7455 167.515 45.4666 167.75 45.452 168.007C45.1951 172.22 44.9675 176.433 44.7253 180.735C44.3216 180.889 43.8152 181.08 43.661 181.138C44.7033 183.245 45.7162 185.3 46.7952 187.48C47.6099 184.089 50.6045 183.582 53.7387 182.54C53.1588 182.371 52.9827 182.305 52.7992 182.276C52.5056 182.225 52.2046 182.232 51.9257 182.151C51.6542 182.07 51.4046 181.902 50.8321 181.615C52.8726 180.206 54.458 181.175 55.9994 181.285C57.7756 181.417 59.5519 181.52 61.3208 181.696C62.9649 181.858 64.6017 182.085 66.4881 182.32C66.3266 179.215 66.1725 176.301 66.0037 173.042C61.8419 172.83 57.783 171.618 53.6579 172.029C52.3808 174.687 53.2983 177.652 51.7202 180.294C50.8541 177.857 51.2725 173.534 52.7625 167.714C52.7551 167.706 52.7038 167.655 52.7038 167.655L52.6817 167.662ZM45.0042 166.143C45.518 159.361 46.0098 152.916 46.5162 146.274C42.0903 145.877 37.6056 145.481 32.798 145.055C32.2181 151.669 31.6603 158.01 31.0878 164.535C35.6972 165.071 40.2847 165.6 45.0042 166.143ZM25.7737 189.77C27.4325 189.946 29.473 190.21 31.5208 190.379C34.4641 190.621 37.4074 190.871 40.3581 190.944C41.2535 190.966 42.3105 190.599 43.0445 190.064C44.5565 188.955 44.8721 187.37 44.2849 185.572C43.6243 183.531 42.3839 182.452 40.2406 182.283C36.0128 181.946 31.7851 181.571 27.5573 181.351C25.4948 181.241 23.3956 181.241 21.3624 181.542C19.366 181.836 18.287 183.729 18.3971 186.034C18.5072 188.243 19.6082 189.513 21.8102 189.748C22.9772 189.873 24.1736 189.77 25.7737 189.77ZM57.0563 184.118C55.1773 184.449 52.8359 184.698 50.5899 185.322C48.9164 185.784 47.9108 187.458 48.0209 188.911C48.1457 190.533 49.3641 191.333 50.678 191.766C52.3368 192.317 54.0837 192.728 55.8232 192.919C58.539 193.22 61.2768 193.396 64.0145 193.418C66.3486 193.44 68.7414 193.433 71.0021 192.941C73.2555 192.449 73.8867 191.26 73.7472 189.366C73.6078 187.495 72.4114 186.027 70.4369 185.748C66.1578 185.146 61.8639 184.691 57.0637 184.118H57.0563ZM42.839 179.619C43.25 176.485 43.661 173.409 44.1014 170.092C39.5507 169.549 35.1908 169.027 30.596 168.477C30.0969 171.743 29.6271 174.797 29.1207 178.107C33.7815 178.621 38.1561 179.105 42.839 179.626V179.619Z" fill="black" fill-opacity="0.1"></path><path d="M97.6164 122.272C97.3889 113.817 98.8863 105.486 99.4881 96.8323C96.6623 96.5461 93.9685 96.2745 90.9885 95.9662C90.7316 97.1847 90.3793 98.3077 90.2839 99.4454C89.8508 104.759 89.5426 110.088 89.0875 115.402C88.904 117.553 88.471 119.681 88.1407 121.92C91.2748 123.028 94.7245 122.617 97.7266 124.313C96.699 124.46 95.664 124.599 94.5043 124.761C95.5539 125.15 96.4714 125.487 97.455 125.854C96.721 133.994 96.0677 142.068 94.2474 150.003C93.5869 142.186 95.642 134.53 95.6861 126.544C93.0731 126.346 90.7537 126.163 88.0893 125.964C87.1498 134.244 86.247 142.237 85.3148 150.472C87.0323 150.634 88.4783 150.883 89.9169 150.883C93.6089 150.898 95.664 153.195 97.3889 156.014C100.479 161.042 99.8551 167.193 95.8696 170.973C95.5099 171.31 95.1649 171.692 94.7466 171.919C93.6162 172.514 92.4492 173.035 91.3115 173.578C89.0141 170.319 89.4398 168.022 92.684 166.011C93.9905 165.203 94.5631 164.095 94.5337 162.561C94.4676 158.385 90.5335 155.713 86.614 157.291C84.0597 158.319 82.5256 160.366 81.6742 162.906C81.1604 164.455 82.0118 166.253 83.5606 167.2C84.1404 167.56 84.8157 167.758 85.4689 168.044C85.4689 169.255 85.557 170.444 85.4469 171.604C85.3221 172.859 84.5955 173.263 83.3917 172.859C81.4026 172.191 80.1108 170.657 79.0612 168.976C75.6702 163.567 76.8519 155.074 82.599 152.373C83.8321 151.793 83.8028 150.773 83.9276 149.665C84.7496 142.017 85.4249 134.339 86.5993 126.742C87.0984 123.542 87.0176 120.357 87.3479 117.179C87.6709 114.037 87.8544 110.881 88.1113 107.732C88.4709 103.424 88.8453 99.1151 89.2343 94.557C93.3667 94.1753 97.0293 95.0781 101.074 96.0103C100.296 104.928 99.6936 113.685 97.6238 122.272H97.6164ZM92.0455 171.494C96.5155 169.292 98.6 165.203 97.6899 160.741C96.7063 155.926 93.1244 152.674 88.537 152.432C84.2138 152.205 80.2136 154.935 79.0832 159.06C78.0703 162.73 78.863 168.727 83.6193 171.406C84.2432 170.129 83.9276 169.24 82.7018 168.448C80.309 166.899 79.6924 164.587 80.4851 161.959C81.3953 158.943 83.3844 156.792 86.3497 155.698C89.983 154.362 93.5722 155.911 95.2897 159.412C97.066 163.038 96.4274 165.203 92.8749 167.633C91.2895 168.719 91.172 169.174 92.0455 171.494Z" fill="black" fill-opacity="0.1"></path><path d="M13.5237 160.33C17.5166 157.629 18.779 154.957 17.8542 151.683C17.2597 149.577 15.065 148.138 12.3126 148.057C8.96559 147.955 6.51406 149.364 5.64061 151.881C4.56899 154.972 5.68465 157.768 9.0977 160.33C8.82613 161.666 8.53987 163.075 8.26095 164.425C3.4313 164.425 -1.23687 159.53 0.297171 153.137C1.39082 148.593 3.40929 145.885 7.40953 143.433C7.53431 141.128 7.58568 138.809 7.81322 136.512C8.40041 130.427 9.05366 124.342 9.69957 118.257C9.91977 116.18 10.3602 115.799 12.2759 116.041C14.1329 116.276 15.9899 116.54 17.8322 116.877C19.8873 117.259 20.0782 117.435 19.8947 119.344C19.2561 125.722 18.5662 132.1 17.8395 138.471C17.7441 139.33 17.3551 140.16 16.6211 141.04C16.5183 140.365 16.2688 139.668 16.3275 139.007C16.7165 134.882 17.1789 130.772 17.612 126.654C17.8982 123.924 18.1698 121.193 18.4781 118.199C16.0779 117.978 13.876 117.78 11.4024 117.56C10.4849 125.502 9.58947 133.289 8.67933 141.18C11.9162 141.723 15.065 142.259 18.757 142.883C17.9423 143.463 17.6707 143.661 17.289 143.932C21.5388 147.243 24.1445 151.434 22.9554 156.931C22.0159 161.276 18.9185 163.978 14.4338 165.71C14.1035 163.794 13.8173 162.106 13.5163 160.359L13.5237 160.33ZM6.75628 162.906C7.85726 161.467 6.7783 160.675 5.91219 159.713C3.26983 156.77 2.95421 152.535 5.07544 149.628C7.27741 146.611 12.085 145.378 15.5128 147.088C17.8615 148.256 19.3369 150.054 19.4103 152.902C19.4837 155.955 18.8744 158.612 16.1807 160.403C14.9182 161.24 15.2632 162.084 15.8137 163.097C20.291 161.049 22.3462 157.218 21.4948 152.733C20.5773 147.896 16.5037 144.277 11.8795 144.167C7.13795 144.064 3.36524 147.441 1.94131 153.085C0.818302 157.54 2.28628 160.557 6.75628 162.906Z" fill="black" fill-opacity="0.1"></path><path d="M31.9685 85.9107C48.6447 88.6705 65.4237 89.6981 82.5257 89.4999C83.3331 78.9158 82.8927 68.2583 85.8139 58.0265C86.0635 58.0118 86.3131 57.9971 86.5626 57.9824C86.6947 58.5329 87.0397 59.1348 86.9149 59.6266C84.7643 68.1335 84.9185 76.868 84.2873 85.5217C84.1772 87.0557 84.001 88.5898 83.8175 90.5642C80.4852 90.755 76.9841 91.1 73.4829 91.1147C69.9304 91.1294 66.3779 90.8211 62.8254 90.6449C59.3683 90.4761 55.9112 90.3807 52.4615 90.0945C48.931 89.8009 45.3932 89.4192 41.892 88.876C38.5083 88.3476 35.0219 88.1861 31.741 87.1438C31.8144 86.7328 31.8951 86.3291 31.9685 85.9181V85.9107Z" fill="black" fill-opacity="0.1"></path><path d="M36.4313 51.0828C39.8223 50.9653 43.1546 51.8534 46.942 52.0149C47.0741 50.591 47.1989 49.1597 47.331 47.7358C47.5072 45.8567 48.087 45.2402 49.8046 45.1007C51.2725 44.976 51.8891 45.4017 51.8597 46.877C51.823 48.6386 51.5441 50.3855 51.3312 52.5067C57.1077 53.2113 62.9283 53.9159 69.1892 54.6793V47.0899C71.1269 47.2513 72.6243 47.3688 74.3565 47.5082V54.9509C77.9457 56.0519 81.6744 55.2885 84.8158 57.3437C76.5878 57.4831 68.5066 55.9418 60.374 55.127C52.3221 54.3196 44.2703 53.4022 36.2625 52.2718C36.3212 51.8755 36.3726 51.4718 36.4313 51.0754V51.0828ZM73.5344 55.0023C73.3876 53.182 73.2408 51.6479 73.1527 50.1065C73.0573 48.4257 72.1252 48.6092 70.9141 48.9028V54.5325C71.7582 54.6866 72.5582 54.8261 73.5271 55.0023H73.5344ZM49.9587 52.7049C50.1495 50.3781 50.2963 48.6826 50.4651 46.5687C49.7091 46.943 49.0485 47.1045 49.0339 47.3027C48.9531 48.9028 48.0063 50.635 49.9513 52.7049H49.9587Z" fill="black" fill-opacity="0.1"></path><path d="M42.854 80.8242C42.7439 79.9141 42.5824 79.2388 42.5971 78.5782C42.6412 76.7799 43.0669 76.2808 44.9165 76.3102C47.28 76.3542 49.6361 76.5671 51.9922 76.8093C56.5943 77.2717 61.1891 77.7708 65.7765 78.3213C69.1675 78.7323 72.5439 79.2535 76.1404 79.7526C76.0157 81.5949 75.9129 83.0188 75.8248 84.362C64.6755 83.1656 53.8051 81.9986 42.8614 80.8242H42.854ZM74.3422 80.6847C72.698 80.6113 71.1273 80.626 69.5786 80.4499C61.9524 79.5984 54.3263 78.6809 46.7001 77.8442C45.834 77.7488 44.7037 77.3304 44.0137 78.8865C45.1881 79.6645 46.5313 79.8039 47.8378 79.9507C50.9646 80.3031 54.1061 80.582 57.2402 80.9123C62.3341 81.4408 67.428 81.9839 72.5219 82.5344C73.6302 82.6518 74.555 82.5858 74.3422 80.6847Z" fill="black" fill-opacity="0.1"></path><path d="M73.4465 1.44314C77.4908 -1.46345 92.1706 0.356841 99.0334 3.91669C109.471 9.33353 118.873 22.6114 118.807 28.3292C117.493 27.3236 117.053 25.929 116.444 24.6959C112.451 16.622 106.843 10.0528 98.8793 5.65624C94.4166 3.19004 89.7044 1.5826 84.5298 1.62664C81.5644 1.64866 78.6065 1.67068 75.6412 1.66334C74.9072 1.66334 74.1805 1.51654 73.4465 1.4358V1.44314Z" fill="black" fill-opacity="0.1"></path><path d="M100.479 32.3219C95.8553 20.3432 87.5906 13.7667 74.4521 14.4346C74.4521 13.0547 75.377 13.1134 76.0889 13.0033C79.7222 12.4381 83.1646 13.3997 86.4529 14.6988C92.4863 17.0769 96.8315 21.4001 99.672 27.184C100.413 28.6887 101.162 30.3034 100.479 32.3219Z" fill="black" fill-opacity="0.1"></path><path d="M30.6182 83.5398C30.5522 82.7544 30.3907 81.9617 30.4347 81.1836C31.11 69.3958 33.5909 55.7876 35.7782 52.5214C35.6975 54.0627 35.7415 55.3325 35.5507 56.5656C34.1561 65.535 32.7175 74.497 31.2935 83.459C31.066 83.4884 30.8384 83.5104 30.6109 83.5398H30.6182Z" fill="black" fill-opacity="0.1"></path><path d="M74.1583 61.1678C75.0171 62.4816 75.4648 63.3697 76.1034 64.0891C77.9971 66.2029 77.9237 68.4416 75.6557 70.1518C73.8647 71.5023 71.8536 72.1042 69.5782 71.3482C67.2588 70.5775 66.1432 69.1462 65.9964 66.5699C65.8496 64.0303 66.8405 62.3348 69.0644 61.4173C70.9435 60.6466 72.8371 60.3237 74.1583 61.1678ZM67.5671 66.3351C67.6185 68.6838 69.2773 70.3426 71.4719 70.2325C73.806 70.1224 76.03 68.3682 75.9346 66.7094C75.8318 64.9038 73.4904 62.2541 71.9857 62.2467C69.3213 62.2321 67.501 63.9056 67.5598 66.3351H67.5671Z" fill="black" fill-opacity="0.1"></path><path d="M49.3863 59.8613C48.6377 59.7879 47.889 59.6705 47.1403 59.6485C44.9971 59.5971 43.0887 61.1825 42.7658 63.2524C42.4575 65.2121 43.6172 67.1205 45.4228 67.6269C47.4192 68.1921 50.4139 67.0251 50.8543 65.1314C51.1259 63.957 50.4873 62.5771 50.2818 61.4027C52.1094 61.8578 53.0416 63.6561 52.2856 65.77C51.3975 68.2582 47.6174 69.9757 44.8503 69.161C42.4868 68.4637 40.828 65.3442 41.4152 62.7239C42.0758 59.7953 44.9897 57.63 47.7202 58.1365C48.3881 58.2612 48.9973 58.7163 49.6286 59.0246C49.5478 59.3035 49.4671 59.5824 49.3863 59.854V59.8613Z" fill="black" fill-opacity="0.1"></path><path d="M93.9028 37.7534C93.4697 37.0195 93.0954 36.2488 92.6036 35.5588C91.0109 33.3201 89.5429 30.9567 87.7006 28.9456C85.6821 26.7289 83.0104 25.7234 79.9203 26.2885C79.5386 26.3619 79.1349 26.3693 78.7459 26.3399C78.5771 26.3326 78.4156 26.1637 77.9165 25.8775C78.5184 25.4591 78.9661 24.9086 79.4726 24.8426C81.8507 24.5563 84.2141 24.6444 86.328 25.9949C90.5852 28.7034 93.345 32.4614 94.468 37.3571C94.2845 37.4892 94.0936 37.6213 93.9101 37.7461L93.9028 37.7534Z" fill="black" fill-opacity="0.1"></path><path d="M71.8979 130.867C66.9581 130.464 62.4588 130.089 57.8493 129.715C57.7612 128.541 58.7741 128.129 59.4568 127.506C61.3504 125.781 63.3029 124.115 65.1525 122.346C65.9819 121.553 67.0756 120.562 66.2241 119.314C65.292 117.956 63.9488 118.911 63.0386 119.439C61.2624 120.474 59.6109 121.758 57.9961 123.05C56.763 124.034 55.596 125.12 54.517 126.272C52.3664 128.592 49.7974 129.267 46.7294 128.739C42.942 128.093 39.1106 127.704 35.3379 126.999C32.512 126.471 32.101 125.7 32.4386 122.896C32.9377 118.683 33.4075 114.47 33.9433 110.257C34.4938 105.948 36.2113 104.781 39.6611 105.178C43.4778 105.611 47.3092 105.882 51.126 106.33C56.3153 106.939 61.4899 107.659 66.6719 108.326C68.5289 108.569 70.4005 108.767 72.2502 109.046C74.2687 109.354 74.4595 109.662 74.6063 111.732C74.9513 116.628 73.7916 121.34 72.8814 126.082C72.5731 127.704 72.2135 129.319 71.8979 130.867ZM72.9401 110.895C72.5218 110.719 72.2575 110.543 71.9786 110.506C65.2259 109.655 58.4659 108.774 51.7058 107.981C47.5955 107.504 43.4778 107.042 39.3454 106.8C36.4462 106.631 35.9838 107.159 35.5801 110.11C35.0002 114.411 34.4644 118.712 33.9726 123.028C33.8772 123.865 34.0681 124.738 34.1194 125.605C35.147 125.803 35.9104 126.008 36.6884 126.089C40.0207 126.449 43.3897 126.61 46.6853 127.161C49.4745 127.623 51.5737 126.999 53.6509 125.003C56.2712 122.492 59.1778 120.246 62.1285 118.125C64.0956 116.716 66.6498 116.951 67.5967 118.191C68.6096 119.52 68.0958 121.509 66.2462 123.469C64.7855 125.017 63.3322 126.573 61.6294 128.394C64.6754 128.673 67.56 128.937 70.4226 129.201C72.8154 118.72 73.7108 115.674 72.9328 110.895H72.9401Z" fill="black" fill-opacity="0.1"></path></svg>