<svg xmlns="http://www.w3.org/2000/svg" width="133" height="140" viewBox="0 0 133 140" fill="none"><path d="M27.1777 12.5834C26.6456 12.5852 26.1155 12.5791 25.2717 12.5787C25.5995 12.0785 25.7585 11.5782 26.1001 11.36C28.515 9.83807 30.8804 8.21091 33.4282 6.96703C34.6118 6.38575 36.2221 6.25734 37.5503 6.48024C44.2885 7.61066 51.0149 8.78872 57.7034 10.1852C72.0513 13.179 86.3812 16.278 100.691 19.4228C106.506 20.7017 112.257 22.2686 118.072 23.5813C119.287 23.8518 120.626 23.5625 122.357 23.5234C122.397 23.8372 122.694 24.6712 122.565 25.4236C120.726 36.0353 118.724 46.623 116.975 57.2486C115.922 63.6434 115.364 70.1198 114.366 76.5285C113.71 80.7692 112.501 84.9224 111.852 89.1651C110.484 98.0635 109.285 106.996 108.097 115.922C107.706 118.862 107.588 121.828 107.271 124.779C107.207 125.37 106.927 126.355 106.565 126.45C103.706 127.186 104.664 129.257 104.848 131.421C101.558 131.112 98.2922 131.045 95.1117 130.468C84.919 128.642 74.7561 126.662 64.5872 124.672C54.4164 122.691 44.2715 120.606 34.1107 118.619C29.8958 117.791 25.6511 117.15 21.4343 116.33C20.0982 116.072 18.9386 116.119 17.6042 116.595C13.5374 118.041 10.7326 116.3 10.6549 111.926C10.5928 108.332 11.1501 104.691 11.8028 101.142C13.9 89.6663 16.3447 78.2528 18.3109 66.7616C19.5905 59.2927 20.2388 51.7164 21.2365 44.1939C22.2243 36.7785 23.1544 29.3571 24.4022 21.9816C24.9475 18.7594 26.2076 15.6486 27.142 12.4901C28.9368 12.5683 28.6108 13.6681 28.2748 14.8076C27.5073 17.4341 26.5454 20.0287 26.0519 22.7069C25.1804 27.4678 24.5768 32.2704 23.8999 37.0631C23.3006 41.3098 22.7231 45.5704 22.1813 49.823C21.4026 55.932 20.9217 62.0988 19.8511 68.16C17.8512 79.4486 15.4642 90.6656 13.3591 101.936C12.7542 105.161 12.4452 108.45 12.2334 111.722C12.1475 113.076 12.5202 114.587 14.4519 115.063C14.6268 114.6 14.8195 114.235 14.901 113.842C15.8062 109.419 16.6875 104.989 17.5927 100.566C19.9082 89.2299 22.3211 77.9097 24.5335 66.5476C26.8095 54.864 28.8989 43.1505 31.0617 31.447C31.404 29.6086 31.7462 27.7702 32.0725 25.9278C32.958 21.0439 33.8097 16.1599 34.7429 11.2879C34.904 10.4422 34.8429 9.27073 36.8842 8.90423C33.5018 26.8258 30.4868 44.4259 26.9933 61.9483C23.4601 79.6633 19.9666 97.3883 16.5487 114.676C17.3032 114.595 18.4807 114.24 19.5925 114.384C23.0888 114.846 26.571 115.431 30.0334 116.095C34.2542 116.899 38.4551 117.85 42.664 118.701C51.3041 120.46 59.9462 122.211 68.5903 123.953C69.4499 124.126 70.3274 124.262 71.191 124.419C76.7222 125.416 82.2434 126.453 87.7785 127.4C92.8451 128.264 97.9396 129.016 103.256 129.858C103.515 127.678 103.659 125.824 103.973 123.995C105.456 115.413 106.984 106.85 108.507 98.2771C109.513 92.6387 110.618 87.0163 111.527 81.362C112.891 72.8846 114.034 64.3773 115.429 55.9078C116.79 47.6408 118.368 39.4195 119.785 31.1665C120.089 29.3777 120.136 27.5412 120.319 25.528C112.428 23.7796 104.907 22.0651 97.3631 20.446C84.2125 17.6253 71.0518 14.8444 57.8972 12.0734C52.2867 10.8879 46.6245 9.94253 41.0677 8.54255C35.5208 7.13662 31.2254 9.25936 27.1757 12.5914L27.1777 12.5834Z" fill="black" fill-opacity="0.1"></path><path d="M74.2434 43.383C75.4662 43.9592 76.3178 44.4678 77.2429 44.7839C79.7899 45.6665 80.9069 47.6424 80.9536 50.0846C81.0062 52.7392 79.5302 54.7579 77.0599 55.6583C75.3422 56.283 73.4499 56.5602 71.6113 56.6906C69.4352 56.8545 67.2453 56.7028 65.1467 56.692C64.9343 56.3941 64.6723 56.1934 64.7061 56.0584C65.9829 50.724 64.6131 45.3428 64.9825 39.9921C65.1463 37.6195 65.7367 35.4972 67.9787 34.565C70.5682 33.4918 73.3182 33.2606 75.8053 35.124C77.9589 36.7351 78.2578 39.0126 76.5336 41.1125C75.9158 41.8608 75.1491 42.4958 74.2513 43.385L74.2434 43.383ZM68.8939 44.9295C68.8484 44.5721 68.8029 44.2147 68.7573 43.8573C69.788 43.3137 70.8306 42.7899 71.8434 42.2165C72.7966 41.6788 73.7995 41.1789 74.6238 40.4823C76.2961 39.0614 75.9911 36.9765 74.0617 35.987C70.6056 34.2185 66.8086 36.137 66.7118 39.9947C66.5947 44.7757 66.9304 49.5688 67.0832 54.7887C69.3864 54.7916 71.5623 54.9989 73.673 54.7257C75.0172 54.5476 76.4471 53.893 77.5275 53.0496C80.1492 51.0056 79.7652 47.8207 76.726 46.4773C75.251 45.8295 73.5654 45.6521 71.9573 45.3338C70.9528 45.1328 69.9164 45.059 68.8939 44.9295Z" fill="black" fill-opacity="0.1"></path><path d="M52.259 45.2703C49.257 45.1261 46.5251 44.9146 43.7851 44.8698C40.8109 44.817 40.3124 45.2914 39.5031 48.2871C39.0438 49.9865 38.646 51.7097 38.0695 53.3713C37.7396 54.3183 37.4631 55.4896 35.8985 55.8067C35.8451 55.2448 35.6725 54.8218 35.7818 54.4863C37.2867 49.7912 38.7777 45.0842 40.3838 40.423C41.0258 38.5668 41.8207 36.7405 42.7387 34.9956C43.8236 32.9212 45.5356 31.5777 48.0373 31.7654C50.4634 31.951 51.7037 33.6709 52.3958 35.7261C53.0919 37.7993 53.637 39.9358 54.0432 42.0883C54.2988 43.4266 54.7849 44.35 56.7643 44.601C55.7555 45.1248 55.2411 45.3926 54.4269 45.8132C54.6228 47.5585 54.6121 49.5559 55.1275 51.4065C55.6827 53.4022 55.1461 54.77 53.444 56.1075C52.0575 52.68 52.9782 49.037 52.267 45.2723L52.259 45.2703ZM51.8944 43.4911C52.2808 40.4654 51.5233 37.9635 50.3866 35.5943C49.0991 32.9174 46.8 32.6286 44.9148 34.933C43.0218 37.2354 41.8612 39.9153 41.6237 43.0542C45.0466 43.2025 48.2948 43.3408 51.8944 43.4911Z" fill="black" fill-opacity="0.1"></path><path d="M106.599 57.0302C105.222 60.1031 103.157 61.2062 100.663 61.5606C94.4956 62.4298 88.3467 57.2612 87.6939 51.106C87.0312 44.9229 92.7439 38.8258 98.758 38.7369C101.299 38.6982 103.527 39.5091 105.343 41.2888C105.648 41.5848 105.648 42.1923 106.005 43.3619C104.151 42.3069 102.958 41.3415 101.602 40.926C100.292 40.5303 98.7514 40.4146 97.4071 40.694C95.9476 40.9952 94.4583 41.6856 93.2587 42.5666C92.1505 43.3862 91.2545 44.6049 90.5214 45.8138C88.4214 49.2459 89.1403 53.7889 92.1054 56.7087C96.1046 60.6555 99.6943 60.8117 106.591 57.0282L106.599 57.0302Z" fill="black" fill-opacity="0.1"></path></svg>