<svg xmlns="http://www.w3.org/2000/svg" width="108" height="162" viewBox="0 0 108 162" fill="none"><path d="M64.3235 69.268C63.095 68.1849 61.9417 66.8973 62.7089 65.2895C63.5391 63.5499 64.639 61.7405 66.9123 61.5411C68.959 61.3577 71.0666 61.0149 73.0693 61.2923C76.6854 61.7814 80.5013 61.0486 83.9273 62.9036C84.3437 63.1301 85 62.861 85.519 62.9623C86.8199 63.2161 88.1848 63.3722 89.3861 63.8942C92.2634 65.1407 92.6815 68.4486 90.1033 70.171C88.9023 70.9725 88.7154 71.8775 88.6356 73.072C88.3171 77.6468 87.9776 82.2248 87.6327 86.7951C87.1018 93.7907 86.5851 100.782 86.0267 107.78C85.6608 112.353 85.2081 116.919 84.8489 121.494C84.4817 126.155 84.2279 130.829 83.8145 135.483C83.4848 139.16 82.9814 142.821 82.5252 146.484C82.477 146.889 82.2429 147.271 81.8427 147.631C82.3328 133.488 83.6523 119.418 84.7578 105.088C80.8443 105.716 77.2828 105.868 73.7076 105.297C70.2709 104.75 66.8185 104.336 63.0385 103.813C62.8879 104.704 62.618 105.818 62.5219 106.949C61.954 113.762 61.44 120.577 60.8853 127.393C60.5311 131.697 59.9073 135.989 59.8303 140.299C59.7724 143.493 60.216 146.73 60.761 149.89C61.4233 153.721 64.1951 155.873 67.588 157.281C72.878 159.472 77.8355 158.369 80.6098 154.202C81.791 152.434 82.6636 150.403 83.3833 148.393C84.0145 146.627 84.229 144.715 84.6491 142.872C84.8369 142.042 85.0896 141.23 85.7712 140.49C85.8452 141.337 86.0654 142.202 85.9788 143.036C85.5102 147.294 84.2842 151.335 81.8458 154.879C78.2143 160.143 72.7911 160.909 66.9855 158.557C62.8067 156.86 60.4441 153.773 58.9788 149.392C57.4054 144.688 58.5048 140.231 58.8145 135.669C59.1539 130.649 59.6286 125.633 60.0482 120.62C60.469 115.601 60.8909 110.576 61.3117 105.557C61.8941 98.6582 62.4765 91.7594 63.0523 84.8596C63.4821 79.7471 63.8976 74.639 64.3411 69.2846L64.3235 69.268ZM63.1861 99.8878C70.8376 97.0208 77.8692 98.1822 85.1513 100.954C85.8973 91.3204 86.6149 82.0555 87.3179 72.9579C80.0164 71.9477 73.0206 70.9756 65.6807 69.9521C64.8524 79.9516 64.0344 89.7696 63.1927 99.8889L63.1861 99.8878ZM63.7508 102.128C69.9059 104.139 75.896 104.676 82.0056 103.985C82.8078 103.897 83.5756 103.49 84.5455 103.172C80.1863 99.0489 67.1215 98.3677 63.7575 102.129L63.7508 102.128ZM66.1918 63.435C70.0939 66.85 84.7438 68.5525 87.9932 65.8712C87.2642 64.7232 86.2885 64.1918 84.8745 64.3261C83.9986 64.4088 83.0129 64.4186 82.2182 64.1011C78.2723 62.5111 74.1019 62.9328 70.0223 62.5758C68.7309 62.4661 67.3524 62.5113 66.1852 63.4339L66.1918 63.435ZM64.3939 64.9974C64.28 65.2293 64.1596 65.4601 64.0457 65.6919C65.233 66.5374 65.1606 68.3711 67.2734 68.64C73.8635 69.4825 80.4177 70.6174 86.529 71.5622C88.1032 70.1587 89.3589 69.034 90.6222 67.9037C87.4486 67.8084 84.5239 68.4882 81.5953 68.509C78.6655 68.5364 75.6895 68.1148 72.8118 67.513C69.954 66.9146 67.1951 65.851 64.395 64.9909L64.3939 64.9974Z" fill="black" fill-opacity="0.1"></path><path d="M31.0097 124.983C32.0183 129.897 32.9744 134.64 33.9724 139.376C34.1193 140.073 34.4269 140.742 34.7235 141.397C36.6545 145.632 40.4663 147.613 45.0667 146.816C47.926 146.322 49.8749 144.629 50.616 141.931C51.2007 139.797 51.2675 137.515 51.4872 135.292C51.6078 134.016 51.5668 132.733 51.6005 131.449C51.8074 131.43 52.0208 131.412 52.2277 131.392C52.4347 132.296 52.6989 133.182 52.8365 134.095C53.2635 136.909 52.9215 139.695 52.0573 142.358C51.1433 145.156 49.2741 147.1 46.3204 147.951C41.4634 149.343 36.6141 147.397 33.9801 143.185C32.5968 140.969 32.0104 138.617 31.6112 136.12C29.4082 122.452 27.1623 108.797 24.9384 95.133C24.4187 91.9436 23.9629 88.7378 23.4642 85.5452C23.2658 84.2697 23.0604 83.1559 21.8581 82.1586C20.2143 80.8016 21.453 77.4479 23.8501 76.5568C25.4433 75.9642 27.1188 75.528 28.8014 75.2898C32.2295 74.8037 35.6815 74.4167 39.1333 74.1518C41.7598 73.951 42.8943 74.7875 43.0615 76.6889C43.1098 77.2061 43.1411 77.9444 42.8401 78.2396C41.4376 79.6314 41.9784 81.2498 42.2279 82.7851C43.7782 92.284 45.378 101.771 46.9569 111.261C48.2277 118.88 49.5117 126.502 50.7461 134.135C50.9251 135.244 50.873 136.396 50.6481 137.566C48.5973 132.835 48.7379 127.626 47.2278 122.668C42.0484 124.561 36.7965 125.438 31.0284 124.993L31.0097 124.983ZM24.5735 83.4795C26.5858 96.348 28.6157 109.233 30.8848 122.389C35.727 118.315 41.241 118.738 46.7477 118.521C44.6762 106.043 42.6415 93.8293 40.6079 81.6086C35.1453 82.2463 29.9183 82.8559 24.5735 83.4795ZM46.5989 120.607C41.5129 119.177 34.6745 120.566 32.0195 123.626C35.7248 124.069 39.1215 123.368 42.4598 122.649C43.8192 122.356 45.4915 122.3 46.5923 120.606L46.5989 120.607ZM23.5923 78.1217C28.245 79.9465 37.3354 78.5647 39.4816 75.7445C34.0743 75.8146 28.9173 76.0899 23.5923 78.1217ZM41.8971 77.3948C38.6461 78.3587 35.7302 79.549 32.7037 80.0283C29.6068 80.5228 26.3971 80.3197 22.6222 80.4485C23.6945 81.0505 24.2796 81.6042 24.9351 81.7014C25.9876 81.8589 27.0901 81.8009 28.1542 81.689C32.0573 81.2832 35.9561 80.8224 39.8857 80.3803C40.547 79.3994 41.1983 78.4372 41.9037 77.3959L41.8971 77.3948Z" fill="black" fill-opacity="0.1"></path><path d="M85.8953 38.4916C83.1813 38.0057 81.1994 35.3564 81.7488 32.7888C82.4093 29.7243 86.3243 27.4813 88.7246 28.0567C91.0721 28.6231 93.3184 31.5954 92.8577 33.8793C92.2612 36.8461 88.9524 39.0355 85.8953 38.4916ZM88.9368 29.572C86.2486 28.853 83.6263 31.0362 83.0507 33.0768C82.5726 34.7809 84.1316 36.68 86.1737 37.0455C88.5138 37.4547 91.0744 35.7971 91.4919 33.6077C91.8639 31.6481 90.7644 29.9217 88.9368 29.572Z" fill="black" fill-opacity="0.1"></path><path d="M70.0438 7.5181C73.5136 8.02993 74.8683 9.73166 74.3583 12.9099C73.8114 16.3059 71.3881 18.0748 68.0318 17.5347C65.0053 17.0503 63.3164 14.7152 63.8502 11.7581C64.433 8.51075 66.6214 7.00748 70.0449 7.51151L70.0438 7.5181ZM70.5145 8.06595C69.6416 8.29167 68.8776 8.47474 68.1159 8.68532C66.1277 9.24512 64.9662 11.0577 65.2055 13.2156C65.3984 14.9653 66.7138 16.097 68.7201 16.2326C70.7793 16.377 72.4487 15.2136 72.9668 13.3126C73.6214 10.9257 72.5072 9.36649 70.509 8.05824L70.5145 8.06595Z" fill="black" fill-opacity="0.1"></path><path d="M22.0581 55.0792C19.3551 54.5681 17.5515 52.8719 17.2429 50.7226C16.9634 48.8022 17.9931 46.9266 19.934 45.8431C20.2413 45.671 20.6227 45.3826 20.9053 45.4371C23.1518 45.878 25.5597 46.0067 27.1757 47.9698C28.2849 49.3178 28.1031 50.8752 27.4529 52.3127C26.6446 54.0831 25.1496 55.0181 23.1878 55.1412C22.7421 55.1677 22.2935 55.0919 22.0658 55.0737L22.0581 55.0792ZM21.9601 53.651C24.1088 54.1092 25.9576 52.8879 26.4782 50.8923C26.8799 49.3586 25.5215 47.3169 23.4249 46.7521C21.2501 46.1673 18.9784 47.5615 18.5845 49.4902C18.2284 51.276 19.7719 53.1861 21.9524 53.6565L21.9601 53.651Z" fill="black" fill-opacity="0.1"></path><path d="M75.7412 49.4597C74.0257 49.1291 73.0657 47.5009 73.4343 45.5611C73.8096 43.5817 75.2848 42.684 77.4345 43.1356C79.7085 43.615 80.818 44.8002 80.5337 46.4421C80.2282 48.2093 77.6469 49.8294 75.7412 49.4597ZM79.2448 45.7559C78.9574 45.4087 78.6148 44.6246 78.0346 44.3637C76.718 43.7611 74.9152 44.5897 74.7353 45.7742C74.5924 46.7002 74.8224 47.5874 75.859 47.9594C76.9275 48.3436 78.8045 47.3171 79.2448 45.7559Z" fill="black" fill-opacity="0.1"></path><path d="M75.4656 25.354C77.9587 26.264 78.4432 27.4929 77.2511 29.2053C76.1396 30.8023 73.7025 31.4084 72.2756 30.4546C70.7455 29.4291 70.2564 27.3036 71.1711 25.6665C72.0062 24.1788 72.9283 24.1039 74.548 25.4025C72.142 26.3464 71.6686 26.979 72.331 28.3601C72.8938 29.5275 74.0659 29.8206 75.2887 29.0907C76.6999 28.2502 76.7778 27.3878 75.4734 25.3485L75.4656 25.354Z" fill="black" fill-opacity="0.1"></path><path d="M35.7906 59.1581C34.1574 58.9432 32.8466 57.2624 33.0735 55.6788C33.2692 54.3205 34.8879 53.1757 36.2868 53.4122C38.0551 53.7111 39.8211 55.5094 39.5783 56.785C39.3121 58.1992 37.4304 59.3742 35.7972 59.1593L35.7906 59.1581ZM35.3749 54.7918C34.6662 56.776 34.7909 57.5639 35.7595 57.8159C36.826 58.0912 37.7321 57.3485 38.2255 55.6741C37.2713 55.3771 36.3159 55.0866 35.3749 54.7918Z" fill="black" fill-opacity="0.1"></path><path d="M82.7972 48.63C84.2021 48.1481 85.2369 47.366 85.2531 45.5838C86.29 47.2386 87.6414 47.9964 89.9253 48.016C88.3409 49.0377 86.5428 49.2767 86.5511 51.3956C86.106 50.7367 85.6608 50.0778 85.2157 49.4189C84.4623 49.339 83.71 49.2526 82.9631 49.1738C82.9053 48.9944 82.8551 48.8095 82.7972 48.63Z" fill="black" fill-opacity="0.1"></path><path d="M30.6918 66.6373C30.4532 68.0493 29.1097 69.0914 27.8572 68.8322C26.7884 68.6108 26.3161 67.7912 26.5685 66.619C26.8576 65.3105 28.1009 64.299 29.2105 64.4798C30.1881 64.6383 30.8581 65.6134 30.6852 66.6362L30.6918 66.6373Z" fill="black" fill-opacity="0.1"></path><path d="M32.6848 42.8405C31.3719 42.5778 30.758 41.5918 31.0768 40.268C31.3923 38.9639 32.4103 38.2809 33.6287 38.5411C34.9317 38.8224 35.6358 39.7966 35.4305 41.0514C35.2051 42.4249 34.122 43.1309 32.6782 42.8394L32.6848 42.8405ZM34.0985 39.496C33.4547 40.0523 33.0105 40.4319 32.5728 40.8127C32.7923 41.0398 33.0268 41.4595 33.2326 41.4468C33.9874 41.3979 34.5591 41.067 34.0996 39.4894L34.0985 39.496Z" fill="black" fill-opacity="0.1"></path><path d="M76.9692 56.651C76.5458 57.9911 75.6205 58.5269 74.4506 58.2206C73.8987 58.073 73.1116 57.3088 73.1281 56.8501C73.153 56.0603 73.6401 55.2264 74.1158 54.5399C74.2405 54.3641 75.2039 54.527 75.5355 54.8138C76.1218 55.3201 76.5151 56.0449 76.9626 56.6499L76.9692 56.651Z" fill="black" fill-opacity="0.1"></path><path d="M70.2439 34.9637C70.5145 35.4505 70.718 35.9329 71.0307 36.3318C71.2819 36.6526 71.6708 36.8812 72.0947 37.2243C71.3438 37.9322 70.6812 38.5599 69.8819 39.3139C69.2653 38.5853 68.6761 37.8952 68.1451 37.2625C68.8366 36.5039 69.4454 35.8331 70.245 34.9571L70.2439 34.9637Z" fill="black" fill-opacity="0.1"></path><path d="M88.3238 16.1731C85.5565 16.8455 83.5885 16.3228 81.4569 15.6028C83.0697 14.6538 84.724 14.7841 88.3238 16.1731Z" fill="black" fill-opacity="0.1"></path></svg>