<svg xmlns="http://www.w3.org/2000/svg" width="111" height="131" viewBox="0 0 111 131" fill="none"><path d="M71.609 96.4235C73.2708 101.728 74.9129 106.974 76.6145 112.406C84.6694 110.389 92.6535 108.517 101.065 107.698C101.474 109.417 101.888 111.157 102.302 112.901C100.844 111.806 101.057 109.996 100.12 108.558C91.6969 109.694 83.3846 111.413 75.1884 113.831C75.1123 114.053 75.0164 114.314 74.9328 114.562C74.7972 114.598 74.634 114.691 74.5936 114.65C73.8612 113.974 73.0658 114.321 72.3252 114.546C67.4704 116.004 62.6212 117.492 57.7761 118.975C55.5714 119.65 53.3758 120.337 51.1715 121.019C51.6353 122.62 52.0885 124.174 52.5419 125.732C51.2724 124.535 50.7743 123.035 50.4136 121.438C50.0625 121.35 49.7029 121.263 49.157 121.132C49.4374 120.876 49.5696 120.66 49.7473 120.605C52.7076 119.658 55.6637 118.711 58.6387 117.806C63.099 116.447 67.5696 115.125 72.0347 113.779C72.4156 113.664 72.7718 113.472 73.0245 113.367C71.9413 110.73 70.7715 108.174 69.8381 105.53C68.9194 102.929 68.2414 100.244 67.428 97.5007C67.153 97.4869 66.8106 97.4031 66.4913 97.4555C53.2073 99.613 41.0159 96.8052 30.0525 89.0863C22.9233 84.0655 17.6674 77.45 14.3897 69.2867C12.4576 64.4739 11.3541 59.488 11.0076 54.3578C10.7175 50.0355 11.1655 45.7284 12.0923 41.4864C13.2843 36.0409 15.2569 30.9003 18.1939 26.1467C18.4023 25.8118 18.5314 25.4247 18.7156 25.0265C17.2867 23.4162 15.8803 21.8306 14.3883 20.1502C12.6455 21.885 11.3411 23.8452 10.0806 25.825C6.19812 31.9144 4.01364 38.5991 3.33811 45.7716C2.41541 55.5531 3.40891 65.1273 6.81074 74.3743C9.85289 82.6421 14.4738 89.8424 21.5285 95.3209C26.6974 99.3333 32.4446 102.146 38.7686 103.823C42.4035 104.789 46.0945 105.465 49.8365 105.637C52.9383 105.777 56.0587 105.655 59.1582 105.448C61.6806 105.279 64.1852 104.797 66.7013 104.482C67.1192 104.43 67.5517 104.514 67.9772 104.539C67.9915 104.671 68.0058 104.803 68.0201 104.936C66.0354 105.343 64.0637 105.952 62.0554 106.111C58.2614 106.422 54.4475 106.668 50.6489 106.575C47.7903 106.506 44.9251 105.987 42.1026 105.462C36.8591 104.48 31.861 102.728 27.1862 100.127C19.0976 95.6235 12.9132 89.2497 8.76074 80.9872C6.42431 76.3419 4.69972 71.4686 3.65022 66.3431C2.72045 61.8042 2.1498 57.2411 2.12546 52.6201C2.07156 42.3663 4.2435 32.7193 10.1448 24.1414C11.2543 22.5326 12.474 20.9963 13.7016 19.3438C12.5726 18.2222 11.4342 17.0838 10.296 15.9497C10.3986 15.8424 10.4968 15.7352 10.5994 15.6279C12.2023 16.1073 13.0479 17.6142 14.3976 18.6834C16.8076 16.5124 19.2217 14.2383 22.6749 13.5828C22.7648 14.5693 22.0682 14.5223 21.6549 14.6817C19.2207 15.6018 17.2704 17.1998 15.4441 18.9854C15.3289 19.0976 15.2678 19.2717 15.1124 19.5443C16.4061 21.1004 17.718 22.6815 19.1562 24.4071C19.708 23.6844 20.2285 23.0315 20.7182 22.3586C24.9954 16.475 30.3381 11.8274 36.823 8.50657C45.1284 4.25367 53.9226 3.26824 63.0586 4.63051C63.3477 4.67372 63.6145 4.89371 63.9693 5.067C63.5049 5.73026 62.97 5.5562 62.4945 5.46531C58.9008 4.75913 55.2791 4.79164 51.6465 5.06473C48.1718 5.32241 44.8309 6.196 41.5762 7.37457C35.0499 9.74102 29.4983 13.6217 24.8261 18.7034C20.7804 23.102 17.6177 28.0883 15.4079 33.6936C13.6577 38.13 12.5768 42.6746 12.0872 47.4079C11.5702 52.3997 12.0217 57.2809 13.0739 62.1705C13.9702 66.3336 15.4979 70.2249 17.5528 73.9133C20.4769 79.1591 24.3362 83.6227 29.1094 87.3091C34.4859 91.4626 40.4475 94.3729 47.0415 95.9482C57.0325 98.3411 66.794 97.7125 76.3239 93.7153C83.2512 90.8084 89.2078 86.5757 94.2324 81.02C95.4886 79.6321 96.5841 78.0969 97.6639 76.498C95.7052 77.406 93.8295 78.4477 91.2487 77.3675C92.1802 77.1942 92.7511 77.0109 93.3247 76.9903C95.5514 76.9239 97.1405 75.796 98.3424 74.0461C100.786 70.4844 101.396 64.4724 98.7734 60.6328C97.3313 58.5214 94.6459 57.7973 92.0299 59.0725C91.2112 59.4724 90.8435 60.1915 90.8936 61.0512C90.9944 62.8819 90.1321 64.257 88.9382 65.5007C87.8592 66.6236 86.798 67.763 85.6874 68.8487C84.9303 69.5846 84.6293 70.4552 84.5923 71.4816C84.5439 72.8386 84.993 73.4065 86.3557 73.489C87.2756 73.5435 88.2067 73.4603 89.1237 73.5449C90.4237 73.6644 91.3919 74.3385 91.9081 75.5639C91.994 75.766 91.8862 76.0493 91.8586 76.4021C91.5736 76.2558 91.3531 76.2139 91.2967 76.1006C90.5763 74.5153 89.2242 74.2823 87.6951 74.3185C86.9541 74.3378 86.1823 74.3369 85.4673 74.162C84.189 73.8529 83.7374 73.2251 83.6864 71.9496C83.6283 70.5071 84.0056 69.2216 85.0621 68.1726C86.0857 67.1549 87.0601 66.0923 88.1019 65.0996C89.23 64.0217 89.9371 62.8248 89.9906 61.1889C90.0581 59.1836 90.9064 58.3751 92.8555 57.8405C96.8345 56.7506 99.3175 59.1385 100.359 61.7046C101.415 64.2958 101.594 66.9592 101.018 69.6897C100.936 70.0706 100.884 70.4587 100.774 71.0937C106.98 61.0234 108.848 42.7842 100.254 28.4798C92.1626 15.011 80.165 7.07538 64.0739 5.00673C65.1882 4.40108 66.0212 4.52793 66.8356 4.62129C72.6649 5.26924 78.0189 7.3184 83.0387 10.2653C90.0119 14.3581 95.8588 19.6703 100.195 26.5314C103.436 31.6606 105.373 37.2793 106.314 43.2799C106.925 47.1895 107.055 51.0899 106.689 55.0118C106.116 61.168 104.304 66.9619 101.362 72.3932C96.7016 81.0074 89.9765 87.5929 81.4098 92.2473C78.6408 93.7522 75.6155 94.7836 72.7109 96.0285C72.4037 96.1618 72.0827 96.2744 71.6272 96.4484L71.609 96.4235ZM68.5721 97.9785C69.9626 103.355 71.2098 108.493 74.2753 113.043C74.8133 112.891 75.2833 112.755 75.8043 112.608C74.1713 107.473 72.5783 102.47 70.9462 97.3569C70.0856 97.5828 69.386 97.7632 68.5721 97.9785Z" fill="black" fill-opacity="0.1"></path><path d="M54.3104 20.7324C55.1859 20.6516 55.7238 20.6969 56.2059 20.5431C59.3365 19.5671 62.4519 18.5361 65.5778 17.5518C70.2773 16.0705 75.0689 15.1341 80.0141 15.1686C80.8547 15.1751 81.7333 15.3643 82.5302 15.647C83.6799 16.056 84.2545 17.0473 84.2396 18.1885C84.2301 19.2565 83.4512 19.5861 82.6681 20.0188C82.0484 20.3629 81.4967 20.8885 81.0359 21.4358C80.3755 22.2276 79.8177 23.1093 79.2287 23.9623C78.1315 25.5577 77.6577 27.1904 78.3477 29.1628C79.2043 31.6168 78.352 33.3217 75.9344 34.4254C74.8875 34.9038 73.774 35.2307 72.7081 35.667C71.9119 35.9931 71.1212 36.3489 70.3765 36.7756C69.6526 37.1886 69.4275 37.9315 69.5044 38.7171C69.5817 39.5113 70.143 39.8986 70.8712 40.0814C71.3742 40.2097 71.8693 40.3555 72.3715 40.4667C75.5315 41.1616 77.5589 43.7193 77.3118 46.9243C77.1956 48.4 76.9306 49.9036 76.4684 51.3085C76.01 52.7047 76.2242 53.7888 77.2605 54.7472C77.9795 55.4107 78.7436 56.025 79.479 56.6706C80.0851 57.2018 80.7285 57.7013 81.2479 58.3091C81.564 58.677 81.7927 59.2073 81.8522 59.6893C82.0386 61.1218 81.0832 61.8321 79.8353 61.1358C79.0446 60.6984 78.3849 60.0195 77.6941 59.4148C76.1342 58.046 74.6561 56.5879 73.0353 55.2989C71.1659 53.8149 68.9752 53.2281 66.5684 53.2937C64.4998 53.349 62.416 53.3492 60.3552 53.1855C57.1327 52.9306 54.3644 51.6784 52.259 49.1027C50.706 47.2019 48.8305 45.6752 46.4207 44.9778C44.3582 44.3811 42.2633 44.1245 40.1076 44.5438C36.2086 45.3 32.2982 45.9925 28.3885 46.7021C27.9929 46.7749 27.5821 46.7927 27.1832 46.7886C25.42 46.7663 24.2419 45.9984 23.8175 44.6147C23.3934 43.2353 23.9373 41.5395 25.2364 40.6472C26.1317 40.0339 27.1461 39.5955 28.1007 39.0653C29.0008 38.5633 29.9552 38.1275 30.7775 37.513C31.9946 36.6071 32.3973 35.1147 31.9461 33.805C31.6473 32.9433 31.1598 32.6771 30.3639 33.1104C29.5598 33.5525 28.8489 34.1664 28.0592 34.6423C27.2276 35.1413 26.3837 35.6538 25.4812 36.0016C24.3593 36.4318 23.3598 35.8277 23.2694 34.631C23.2103 33.8618 23.3229 32.9951 23.6356 32.2955C24.893 29.4498 26.9991 27.3906 29.7811 25.9881C31.3503 25.1955 32.9987 24.944 34.6316 25.5207C38.6069 26.9221 41.6432 25.6501 44.3384 22.6392C46.1747 20.5874 48.1926 18.6692 50.3163 16.9179C51.1774 16.2074 52.5056 15.8883 53.6654 15.7395C55.4649 15.5115 55.9893 16.3334 55.3545 18.0117C55.0697 18.7615 54.7761 19.5074 54.3057 20.724L54.3104 20.7324ZM80.9831 60.7088C81.2747 59.2255 80.4555 58.6264 79.7512 58.0052C78.8461 57.204 77.8961 56.4562 76.9708 55.6816C75.4316 54.3977 74.9379 52.8969 75.6496 50.9152C76.1321 49.5823 76.4423 48.1325 76.5054 46.7191C76.6315 43.8881 74.8013 41.8235 72.0247 41.2706C71.2462 41.1157 70.4755 40.8446 69.7499 40.5245C68.9194 40.1574 68.5974 39.3567 68.6387 38.5274C68.6973 37.4058 69.0555 36.3698 70.2252 35.856C71.1215 35.4656 72.0127 35.054 72.9135 34.6677C74.0205 34.191 75.188 33.8231 76.2394 33.2502C77.7389 32.4307 78.0604 31.4391 77.6119 29.795C77.2295 28.3923 76.792 26.902 77.4583 25.5568C78.7242 23.0066 79.8986 20.3231 82.7215 18.9746C83.5827 18.5642 83.6838 17.9296 83.106 17.1614C82.5055 16.3641 81.6326 16.0075 80.6901 16.0269C78.557 16.0764 76.4042 16.0667 74.2993 16.3723C70.132 16.9729 66.1177 18.2358 62.1281 19.5749C60.1629 20.2345 58.1972 20.8813 56.2169 21.4902C55.4892 21.7147 54.725 21.7906 54.0988 21.1918C53.4141 20.5311 53.7685 19.804 54.0083 19.1033C54.2634 18.3591 54.5489 17.6264 54.9596 16.5152C53.8128 16.6678 53.0252 16.6976 52.2833 16.8927C50.9013 17.257 49.8295 18.1523 48.8523 19.1508C47.1606 20.8791 45.5051 22.6487 43.8 24.3648C41.6144 26.5689 39.0419 27.5593 35.9305 26.7036C35.3752 26.5519 34.8133 26.349 34.2463 26.3264C33.2239 26.2806 32.1056 26.1018 31.1804 26.4205C28.0461 27.5082 25.7946 29.6766 24.4118 32.695C24.0239 33.5393 23.9177 34.4529 24.6876 35.5C25.4472 35.1198 26.2221 34.7947 26.932 34.3566C27.9592 33.7205 28.8942 32.9339 29.9446 32.3396C31.2882 31.5825 32.3227 32.0051 32.7379 33.4749C33.1835 35.0506 33.1136 36.6058 31.7575 37.7664C30.9802 38.4304 30.1394 39.2129 29.2023 39.455C27.9089 39.7854 27.0348 40.6893 25.9272 41.2518C24.8449 41.8046 24.3598 43.3735 24.6919 44.4096C25.0192 45.433 26.0341 45.9979 27.4905 45.9649C27.7218 45.9591 27.9579 45.9661 28.1833 45.922C30.1008 45.5474 32.0082 45.1389 33.9269 44.79C36.3646 44.35 38.7981 43.8115 41.258 43.585C43.987 43.3338 46.638 43.7593 49.0684 45.2276C50.7281 46.2276 52.0676 47.5545 53.3254 48.975C55.1058 50.9774 57.3181 52.065 59.9634 52.2592C61.684 52.3862 63.4254 52.598 65.1348 52.4682C69.6778 52.1257 73.3483 53.7161 76.39 57.0231C77.2854 57.9962 78.2798 58.8792 79.2861 59.7404C79.7181 60.1118 80.2848 60.3274 80.9708 60.7222L80.9831 60.7088Z" fill="black" fill-opacity="0.1"></path><path d="M31.4885 52.3476C33.1596 51.0361 35.0287 50.9294 36.974 51.2954C37.6527 51.4246 38.3172 51.6188 38.9773 51.8131C40.354 52.2166 41.711 52.0678 43.0729 51.7344C44.0189 51.5005 44.9642 51.2494 45.9256 51.0749C47.942 50.7046 49.419 51.5453 50.3941 53.2696C51.1601 54.6213 51.8173 56.0335 52.5498 57.4039C52.8998 58.0619 53.2549 58.7368 53.7049 59.3261C54.5365 60.4092 55.5873 61.0112 57.0203 60.5375C58.1405 60.1674 59.0816 60.5125 59.7891 61.4037C60.4737 62.2616 60.4193 63.2844 59.9737 64.1827C59.4139 65.3132 58.6875 66.3608 58.0091 67.4278C57.6999 67.9128 57.3513 68.3781 56.9847 68.8228C55.8273 70.215 55.5779 71.7822 55.9365 73.5289C56.0988 74.3065 56.0959 75.1298 56.0747 75.9283C56.0487 77.0099 55.6174 77.9418 54.769 78.6475C53.8173 79.4433 53.4463 80.4798 53.4003 81.6952C53.3672 82.6142 53.2744 83.5401 53.1509 84.4501C52.9264 86.0977 51.8219 87.1275 50.1468 87.26C47.9162 87.4338 46.0907 86.5653 44.5895 84.971C42.603 82.8617 41.5507 80.2447 40.6494 77.5525C40.1027 75.9168 39.6272 74.2438 38.9498 72.661C37.8712 70.1308 36.3435 69.3094 33.6017 69.5611C32.5683 69.6573 31.5363 69.7877 30.5016 69.854C25.8794 70.1485 22.6833 65.6519 23.2063 61.4917C23.3018 60.7286 23.7271 59.9556 24.1615 59.2936C25.1148 57.8417 25.9987 56.3713 26.4307 54.6633C26.6871 53.6532 27.4238 53.141 28.4067 52.9656C28.5896 52.9319 28.8007 53.0557 29.4209 53.2175C27.4877 53.9229 27.1285 55.332 26.6404 56.7337C26.3089 57.6914 25.696 58.5883 25.0753 59.4041C23.5377 61.4216 23.7392 63.501 24.7937 65.5734C25.8249 67.604 27.4876 68.8697 29.838 68.9866C30.6974 69.0308 31.5618 68.8905 32.4252 68.8274C33.0576 68.7785 33.6875 68.6698 34.3177 68.6682C37.0224 68.6497 38.7912 69.7908 39.7814 72.3591C40.6313 74.5604 41.283 76.8347 42.1117 79.0413C42.9691 81.3152 44.044 83.4639 45.9874 85.0734C47.2237 86.096 48.5953 86.4826 50.1576 86.3206C51.4082 86.1892 52.0279 85.6479 52.2708 84.4239C52.3585 83.9742 52.4027 83.5092 52.4083 83.0459C52.45 80.8403 53.0227 78.916 54.6801 77.2878C55.2229 76.7541 55.1898 75.5936 55.3271 74.7044C55.3837 74.3289 55.1987 73.9167 55.1213 73.517C54.7475 71.6166 54.9817 69.8957 56.2771 68.326C57.2263 67.1744 58.002 65.8803 58.7873 64.6071C59.0799 64.1357 59.2861 63.5522 59.3437 63.0009C59.4546 61.8984 58.7802 61.2759 57.6759 61.3194C57.5603 61.3244 57.4459 61.3551 57.335 61.3685C54.6943 61.6758 53.542 61.1083 52.2924 58.7871C51.5556 57.4169 50.8943 56.0092 50.1951 54.616C48.9562 52.1442 47.8864 51.5988 45.2151 52.0918C44.7046 52.1868 44.1898 52.2777 43.695 52.4364C41.9443 53.001 40.1832 53.1244 38.4149 52.5878C36.5554 52.0252 34.699 51.8312 32.785 52.2871C32.3648 52.3868 31.9082 52.338 31.4717 52.3569L31.4885 52.3476Z" fill="black" fill-opacity="0.1"></path><path d="M54.9655 126.849C54.9428 127.215 54.9167 127.602 54.8596 128.462C54.2455 126.559 52.8885 127.501 51.8944 127.317C51.902 127.196 51.9052 127.072 51.9129 126.952C52.3859 126.687 52.8587 126.417 53.4237 126.097C53.4935 124.641 52.6366 123.168 53.1994 121.313C54.3403 122.807 53.5302 124.695 54.8375 125.972C57.4022 125.295 60.0557 124.588 62.7095 123.89C65.4396 123.171 68.1754 122.483 70.8958 121.739C73.5571 121.015 76.2028 120.227 78.8591 119.486C81.5196 118.745 84.185 118.016 86.8554 117.304C89.5809 116.578 92.2962 115.813 95.043 115.183C97.6667 114.581 100.212 113.553 102.987 113.677C99.131 115.126 95.116 115.978 91.1622 117.054C87.1109 118.155 83.0607 119.283 79.0098 120.393C75.014 121.488 71.0228 122.591 67.0217 123.665C63.0249 124.738 59.0224 125.778 54.9655 126.849Z" fill="black" fill-opacity="0.1"></path><path d="M87.4385 96.2182C89.9584 94.4069 92.3742 92.6687 94.9564 90.8118C94.4047 92.1305 93.8175 92.7305 91.7673 94.1999C90.5114 95.099 89.2555 95.998 87.9456 96.938C88.6699 98.1201 89.334 99.1975 90.1093 100.467C88.8638 100.517 88.7878 99.6542 88.3821 99.1959C87.9311 98.6837 87.5379 98.1176 87.0564 97.4953C83.0878 99.6138 79.1619 101.73 74.6906 103.035C74.8374 101.969 75.5579 101.972 76.075 101.736C78.7954 100.494 81.5252 99.2742 84.2359 98.0077C84.9546 97.6721 85.6159 97.2018 86.4061 96.7346C85.566 95.4546 84.7672 94.2373 83.9641 93.02C85.552 93.5473 86.1486 95.0478 87.4387 96.2225L87.4385 96.2182Z" fill="black" fill-opacity="0.1"></path><path d="M89.7839 49.2868C91.0009 49.2727 92.0235 49.6186 92.9992 50.168C93.8342 50.6378 94.2257 51.4612 94.2243 52.3188C94.222 52.7605 93.7364 53.429 93.3106 53.5975C91.5948 54.2721 89.8144 54.8423 87.9424 54.1902C87.468 54.0263 86.9732 53.7905 86.6198 53.4499C85.4659 52.3508 85.5586 51.1248 86.9312 50.345C87.8017 49.8529 88.8254 49.6284 89.7794 49.2827L89.7839 49.2868ZM93.6576 52.6006C92.6372 50.3252 90.313 49.624 87.9476 50.7469C87.3594 51.0254 86.659 51.3859 86.8431 52.0725C86.9811 52.5853 87.5716 53.0528 88.0696 53.3657C88.4224 53.5905 88.9577 53.5759 89.4123 53.5777C90.866 53.5833 92.2553 53.2873 93.6574 52.5963L93.6576 52.6006Z" fill="black" fill-opacity="0.1"></path><path d="M99.887 0.209961C101.759 0.574788 102.792 1.1475 103.779 2.27097C102.77 2.53335 101.644 1.96043 99.887 0.209961Z" fill="black" fill-opacity="0.1"></path></svg>