<svg xmlns="http://www.w3.org/2000/svg" width="145" height="104" viewBox="0 0 145 104" fill="none"><path d="M60.86 69.7191C62.4351 69.6114 63.9992 69.4689 65.5747 69.411C71.7529 69.1767 77.8737 68.6763 83.8673 66.9873C92.3153 64.6085 98.1783 59.4428 101.274 51.2295C105.801 39.1978 100.02 28.149 93.1299 22.3452C87.6655 17.7444 81.4724 14.5039 74.6537 12.3911C61.8394 8.41158 48.8841 7.94865 35.8636 11.0475C27.6221 13.0114 20.5309 16.9803 15.0917 23.7129C7.28199 33.3864 7.61798 43.4344 13.9862 53.3329C18.6101 60.5275 25.5053 64.6746 33.588 66.9704C36.2377 67.7204 38.9538 68.2073 41.635 68.8628C43.8374 69.4012 44.1877 69.9123 43.5535 72.0913C42.9729 74.0881 42.3562 76.1042 41.4501 77.9584C40.552 79.814 39.2782 81.4776 37.8984 83.6548C46.2489 80.8959 53.1027 76.384 59.7028 71.3265C58.6341 74.4728 56.0728 76.2066 53.5848 77.8442C47.4805 81.8612 40.8013 84.7431 33.9242 87.1462C33.0816 87.4441 32.2078 87.8863 31.7261 86.3185C36.8102 82.4636 40.9981 77.829 42.0154 70.8622C38.7146 69.9845 35.5491 69.1946 32.4095 68.2927C20.577 64.866 12.2033 57.6428 8.56993 45.6982C5.7936 36.5659 8.55287 28.5398 14.664 21.5403C21.0284 14.2493 29.3134 10.4358 38.6428 8.66854C48.1589 6.87278 57.7534 6.83811 67.2082 8.73729C76.5429 10.6092 85.4517 13.8145 92.9755 20.0167C98.1152 24.2595 101.947 29.3318 103.705 35.8833C107.052 48.3876 100.026 62.5939 88.7198 67.0657C80.6757 70.246 72.3223 71.0816 63.7982 71.0036C63.1441 70.9997 62.4845 70.8209 61.8414 70.6945C61.5192 70.6354 61.2166 70.5047 60.8996 70.4132C60.8936 70.1885 60.8889 69.9557 60.8749 69.7297L60.86 69.7191Z" fill="black" fill-opacity="0.1"></path><path d="M72.2491 75.7942C74.2702 75.5912 75.7547 75.4279 77.2421 75.2981C89.5773 74.2293 99.5958 68.9905 106.585 58.6323C109.746 53.9433 111.01 48.615 110.583 42.9202C110.435 40.974 110.429 39.0172 110.35 36.7339C111.515 36.9178 112.505 36.8918 113.338 37.2306C120.474 40.1724 126.825 44.1922 131.234 50.7562C136.414 58.4696 135.894 69.2693 129.89 75.9045C127.66 78.3703 124.963 80.2815 121.74 81.3305C121.015 81.5641 120.319 81.877 119.49 82.1936C121.381 89.2716 127.478 93.0109 132.11 98.4249C127.711 98.3103 124.051 97.2352 120.47 95.932C114.789 93.858 109.079 91.8622 104.001 88.4332C103.365 88.0012 102.305 87.9416 101.507 88.0642C94.9973 89.0833 88.7765 87.96 82.7996 85.4498C79.535 84.0806 76.5325 82.2058 74.3331 79.339C73.6241 78.4231 73.1517 77.3208 72.2691 75.7725L72.2491 75.7942ZM126.044 96.0083C126.168 95.7461 126.285 95.4746 126.41 95.2125C122.891 91.3583 118.986 87.7496 117.66 82.1284C118.778 81.4514 119.807 80.8679 120.804 80.2214C123.196 78.6681 125.881 77.4097 127.895 75.4652C134.863 68.7088 134.737 57.6494 128.555 49.8772C125.408 45.9243 121.335 43.1179 116.922 40.7801C115.416 39.9787 113.834 39.3394 112.421 38.6852C112.06 39.0261 111.914 39.1108 111.92 39.178C111.967 39.9313 112.013 40.6927 112.109 41.4456C112.715 45.9006 112.227 50.2493 110.529 54.3902C105.438 66.7887 95.5241 73.2042 82.9709 76.1779C80.4821 76.7712 77.8958 76.9843 74.8635 77.4502C75.9755 78.5955 76.7236 79.5259 77.625 80.2732C82.8567 84.5637 89.0123 86.2568 95.6545 86.6013C99.6831 86.8065 103.793 86.3946 107.551 88.5711C109.921 89.9399 112.428 91.1231 114.972 92.1215C118.616 93.5508 122.359 94.7302 126.051 96.0176L126.044 96.0083Z" fill="black" fill-opacity="0.1"></path></svg>