<svg xmlns="http://www.w3.org/2000/svg" width="239" height="220" viewBox="0 0 239 220" fill="none"><path d="M27.4545 86.4809C31.4433 84.5044 35.3495 82.4735 39.3195 80.6055C44.5912 78.1317 49.8865 75.7108 55.2333 73.4025C67.9445 67.904 80.7265 62.5641 93.4142 57.0127C100.867 53.7475 108.149 50.0871 115.584 46.7943C125.033 42.6125 134.503 38.4654 144.082 34.5982C149.379 32.4567 152.87 33.8875 155.758 38.8795C157.069 41.1494 158.012 43.632 159.083 46.0431C161.1 50.5577 163.057 55.1001 165.095 59.6016C168.315 66.7057 171.616 73.7687 174.803 80.8833C178.178 88.4026 181.511 95.948 184.787 103.51C186.976 108.545 189.12 113.599 191.139 118.702C192.844 122.997 191.89 125.492 187.649 127.637C182.833 130.066 177.943 132.348 173.032 134.566C164.715 138.316 156.359 141.975 148.003 145.634C138.142 149.96 128.274 154.289 118.389 158.562C107.9 163.088 97.3828 167.555 86.8658 172.022C81.2971 174.392 75.7309 176.752 70.1281 179.037C64.826 181.201 61.6892 179.673 59.3378 174.411C56.2425 167.49 52.7953 160.732 49.6427 153.827C45.5735 144.927 41.7019 135.941 37.6509 127.038C34.782 120.739 31.7476 114.514 28.8303 108.245C27.1115 104.558 25.37 100.866 23.835 97.1027C21.9392 92.4732 23.1613 89.142 27.4381 86.5009L27.4545 86.4809ZM186.138 126.556C190.293 124.03 190.788 122.771 189.673 119.353C189.335 118.308 188.883 117.297 188.442 116.288C184.571 107.427 180.717 98.5457 176.794 89.7081C173.182 81.5646 169.477 73.4597 165.826 65.3311C163.437 60.0253 161.062 54.7109 158.694 49.392C157.303 46.2728 156.112 43.0567 154.533 40.037C152.224 35.6283 149.343 34.568 144.629 36.13C142.966 36.683 141.347 37.4008 139.737 38.0847C133.36 40.7993 126.966 43.4567 120.64 46.284C111.505 50.3651 102.471 54.6829 93.3122 58.7111C82.2436 63.5925 71.0292 68.1497 59.9816 73.0952C50.943 77.1449 42.0565 81.5438 33.1009 85.8023C31.2169 86.697 29.258 87.5033 27.5265 88.6405C24.7824 90.4435 24.0365 92.7789 25.2441 95.791C26.7968 99.6595 28.5029 103.48 30.2576 107.27C33.1768 113.557 36.2935 119.759 39.1642 126.077C43.1114 134.784 46.808 143.599 50.7804 152.3C54.1128 159.613 57.7096 166.809 61.1409 174.08C63.0629 178.152 65.2385 179.104 69.3236 177.435C73.4936 175.731 77.6488 173.989 81.7996 172.239C90.4159 168.61 99.0235 164.966 107.635 161.33C114.52 158.422 121.437 155.581 128.296 152.602C135.755 149.362 143.178 146.019 150.596 142.699C156.724 139.957 162.837 137.176 168.951 134.396C175.057 131.619 181.155 128.829 186.152 126.548L186.138 126.556Z" fill="black" fill-opacity="0.1"></path><path d="M55.4915 189.025C58.9916 187.317 62.1958 185.631 65.5075 184.177C72.448 181.127 79.4532 178.211 86.4216 175.222C96.8388 170.75 107.262 166.303 117.643 161.758C125.509 158.32 133.297 154.728 141.144 151.244C149.883 147.363 158.659 143.556 167.393 139.669C172.923 137.207 178.411 134.645 183.935 132.158C189.048 129.862 194.182 127.6 199.318 125.356C200.221 124.963 201.201 124.752 202.115 124.391C203.357 123.89 204.241 124.204 204.847 125.399C205.048 125.795 205.283 126.17 205.526 126.539C209.285 132.395 207.683 136.352 201.563 139.292C196.416 141.764 191.055 143.772 185.839 146.104C178.601 149.341 171.431 152.718 164.197 155.962C156.878 159.24 149.494 162.384 142.162 165.641C136.726 168.054 131.355 170.6 125.919 173.012C118.591 176.276 111.214 179.446 103.882 182.703C98.45 185.122 93.132 187.799 87.6367 190.056C80.9314 192.803 74.1256 195.313 67.3145 197.768C61.4595 199.884 58.3608 196.755 56.5191 192.566C56.0842 191.582 55.9025 190.478 55.4915 189.025ZM57.8736 189.722C58.3311 195.14 61.6571 197.584 66.7791 196.21C67.4173 196.04 68.0686 195.892 68.6771 195.645C78.1458 191.818 87.6835 188.131 97.0648 184.088C107.071 179.778 116.917 175.105 126.857 170.644C134.475 167.226 142.128 163.864 149.769 160.5C157.816 156.948 165.886 153.45 173.919 149.877C182.766 145.938 191.646 142.066 200.391 137.92C206.402 135.069 207.193 132.328 203.724 127.073C203.55 126.796 203.29 126.582 203.016 126.27C202.616 126.28 202.131 126.17 201.768 126.33C153.879 147.413 105.993 168.514 57.8736 189.722Z" fill="black" fill-opacity="0.1"></path><path d="M156.364 18.5288C159.334 17.2225 165.657 20.3732 170.081 24.6407C176.055 30.419 178.977 38.3101 177.374 45.3719C177.02 44.2405 176.784 43.6346 176.649 43.0041C176.059 40.3287 175.772 37.5501 174.887 34.9736C172.257 27.3629 166.394 22.898 159.33 19.739C158.36 19.3043 157.36 18.9278 156.374 18.5132L156.364 18.5288Z" fill="black" fill-opacity="0.1"></path><path d="M181.666 31.0683C177.941 21.516 171.66 15.2639 161.216 12.6348C162.517 11.9518 162.986 11.4828 163.332 11.5556C172.38 13.6409 180.656 21.4043 182.19 29.8104C182.217 29.9769 182.046 30.1813 181.669 31.057L181.666 31.0683Z" fill="black" fill-opacity="0.1"></path><path d="M65.111 159.757C63.5281 156.255 61.9175 152.771 60.3805 149.251C57.9571 143.706 55.552 138.159 53.1928 132.592C50.2824 125.719 47.4734 118.792 44.531 111.929C42.7135 107.686 40.869 103.43 38.7638 99.3289C36.8374 95.589 38.7148 91.9618 41.7587 90.328C44.5608 88.8173 47.5208 87.6039 50.4503 86.3419C59.3395 82.5313 68.2478 78.7666 77.1431 74.9812C85.2297 71.5399 93.332 68.108 101.417 64.6485C108.601 61.5715 115.753 58.4279 122.95 55.3717C128 53.2213 133.054 51.0778 138.165 49.1017C142.209 47.5355 144.711 48.5925 146.487 52.4942C149.593 59.2931 152.565 66.1566 155.67 72.9556C159.467 81.2538 163.454 89.4708 167.159 97.8075C169.613 103.324 171.82 108.956 173.948 114.601C175.508 118.726 174.591 121.343 170.653 123.432C166.87 125.444 162.869 127.031 158.946 128.773C151.519 132.08 144.099 135.382 136.658 138.65C129.506 141.794 122.322 144.841 115.19 148.031C109.367 150.629 103.673 153.523 97.8037 156.015C90.4226 159.148 83.2651 162.836 75.5022 165.039C71.694 166.119 69.0938 165.336 66.9573 162.154C66.4092 161.329 65.8983 160.47 65.371 159.632C65.2791 159.67 65.1847 159.72 65.0928 159.758L65.111 159.757ZM66.3536 158.472C66.4593 158.425 66.5581 158.382 66.6638 158.335C66.9558 158.8 67.2521 159.271 67.5441 159.735C70.395 164.238 72.194 164.915 77.1496 162.969C81.2444 161.361 85.2624 159.569 89.3126 157.844C93.0595 156.252 96.8056 154.689 100.52 153.03C109.058 149.199 117.572 145.314 126.096 141.462C130.901 139.292 135.715 137.135 140.537 134.992C146.166 132.487 151.791 129.975 157.437 127.498C161.462 125.731 165.604 124.199 169.523 122.219C173.195 120.354 173.795 118.033 172.163 114.253C171.155 111.928 170.138 109.618 169.13 107.293C164.951 97.7259 160.798 88.1531 156.587 78.5969C153.878 72.4581 151.122 66.3385 148.325 60.2451C147.082 57.5455 145.795 54.8538 144.335 52.2711C143.04 49.9812 142.076 49.7079 139.7 50.3896C139.167 50.5412 138.653 50.7387 138.147 50.9501C129.32 54.6443 120.478 58.2994 111.675 62.0464C100.636 66.7446 89.6344 71.5164 78.6062 76.2466C69.5012 80.1446 60.39 84.0174 51.2894 87.9223C48.4657 89.1372 45.5548 90.2134 42.8828 91.7003C39.6597 93.4951 39.0994 95.5107 40.44 98.9034C41.0464 100.437 41.8297 101.898 42.4891 103.407C45.5315 110.352 48.5853 117.3 51.5861 124.271C53.8875 129.622 56.09 135.016 58.4026 140.37C61.0191 146.422 63.7137 152.444 66.3805 158.484L66.3536 158.472Z" fill="black" fill-opacity="0.1"></path><path d="M120.334 166.129C122.398 167.751 124.347 167.067 126.267 166.199C131.071 164.028 135.896 161.874 140.682 159.658C141.418 159.321 142.021 158.68 143.298 157.713C138.606 157.617 135.688 160.235 132.285 161.36C128.804 162.514 125.489 164.193 122.102 165.636C121.981 165.412 121.849 165.186 121.727 164.962C122.364 164.437 122.918 163.75 123.643 163.41C128.622 161.101 133.612 158.795 138.666 156.651C139.941 156.11 141.451 155.944 142.855 155.931C144.745 155.923 145.465 157.268 144.395 158.812C143.795 159.672 142.873 160.465 141.925 160.897C136.237 163.478 130.523 166.017 124.737 168.379C123.644 168.825 122.177 168.538 120.927 168.319C120.534 168.247 120.296 167.284 119.991 166.722C120.107 166.523 120.231 166.319 120.347 166.12L120.334 166.129Z" fill="black" fill-opacity="0.1"></path></svg>