<svg xmlns="http://www.w3.org/2000/svg" width="130" height="127" viewBox="0 0 130 127" fill="none"><path d="M42.339 113.383C42.3591 114.043 42.3792 114.702 42.3993 115.362C42.1222 115.398 41.8451 115.433 41.568 115.469C41.0768 112.923 40.509 110.386 40.1123 107.826C38.614 98.0324 37.3645 88.194 35.6645 78.4376C33.6636 66.9515 31.2964 55.5212 29.0886 44.0664C28.9073 43.1053 28.7374 42.1454 28.5612 41.1907C35.0297 36.1824 41.5113 31.5013 49.198 28.0136C56.5389 33.975 63.7742 40.0012 71.1827 45.8123C81.3881 53.8111 91.701 61.6695 102.02 69.5228C103.851 70.9137 105.932 71.9637 107.849 73.2529C109.275 74.2128 110.612 75.3091 111.969 76.3259C105.631 79.5379 99.5086 82.638 93.3858 85.7381C93.1898 85.8345 93.0224 85.992 92.8419 86.1075C88.6862 88.861 84.7287 88.5276 80.6715 85.6879C78.0749 83.8756 75.1589 82.5137 72.2814 80.8881C69.2991 82.6324 66.2851 84.4025 63.1973 86.2117C63.8586 91.1434 64.5018 95.9104 65.1654 100.819C65.8802 100.828 66.5016 100.839 67.3673 100.851C67.0785 101.287 66.9394 101.739 66.6355 101.923C63.1567 104.03 59.6962 106.185 56.1432 108.162C52.7887 110.02 49.3353 111.705 45.9027 113.415C44.7254 114.004 43.456 114.585 42.2688 113.388C48.5874 110.022 54.8891 106.65 61.1962 103.283C63.307 102.154 63.4962 101.725 63.1975 99.4025C62.7812 96.2355 62.365 93.0685 62.0789 89.8799C61.9383 88.3469 61.8851 86.8694 59.5056 86.0102C64.5731 83.2739 69.0363 80.8716 73.1432 78.6543C77.5169 82.5561 82.7069 84.2719 86.3901 87.4692C94.0737 83.4982 101.316 79.7499 108.729 75.9144C105.551 73.8159 102.524 72.0062 99.7045 69.921C92.4611 64.5457 85.2304 59.16 78.1486 53.5683C70.383 47.4357 62.3658 41.6033 55.2589 34.6592C53.9469 33.3735 52.1992 32.5378 50.6402 31.5062C48.8959 30.351 47.2487 30.2995 45.4992 31.6516C44.2868 32.587 42.8543 33.2266 41.5694 34.0732C37.7429 36.6217 33.5918 38.759 30.5884 42.2526C31.1069 44.9878 31.5208 47.6075 32.1081 50.1809C36.1052 67.6017 38.4863 85.2942 41.1928 102.933C41.7243 106.396 41.9671 109.895 42.339 113.383Z" fill="black" fill-opacity="0.1"></path><path d="M91.838 45.9905C90.388 47.3731 88.9824 48.7195 87.4741 50.1601C84.8828 47.9527 82.0744 46.049 80.8279 42.9778L86.0375 38.7315C84.4905 36.4967 83.0809 34.4562 81.6103 32.3281C84.2543 30.078 86.1968 27.4597 89.6054 26.6141L93.0914 30.891C95.5596 29.2805 97.9096 27.7453 100.391 26.1245L105.211 32.0385C103.228 33.9079 101.343 35.6768 99.2909 37.6031C100.44 39.4017 101.408 41.0946 102.564 42.6553C103.561 44.0079 103.363 45.0351 102.19 46.0968C100.518 47.608 98.8862 49.1699 97.0987 50.8381C95.242 49.1303 93.6458 47.6643 91.8484 46.0032L91.838 45.9905ZM87.0685 48.0299L92.5193 43.5871C93.6054 44.9196 94.461 46.06 95.4129 47.1112C96.5688 48.3869 97.5208 48.4664 98.7591 47.2775C99.8554 46.2255 100.784 44.9935 102.031 43.5437L97.1385 37.5409C99.1853 35.5558 100.961 33.834 102.833 32.0231L99.6932 28.1714L93.1193 33.5297C91.5007 31.7123 90.0913 30.1257 88.5451 28.3971C86.8448 29.952 85.4145 31.2551 83.8561 32.6731L88.3455 38.1811C86.7171 40.0575 85.1493 41.8529 83.5412 43.7022L87.0685 48.0299Z" fill="black" fill-opacity="0.1"></path><path d="M49.6248 49.4112C55.6556 54.5816 61.0537 59.222 66.8384 64.1811C61.1392 67.464 55.6548 70.4662 49.5419 72.5549C51.8618 70.8013 51.2738 68.5769 50.9888 66.3484C50.3972 61.7613 49.8937 57.1657 49.4017 52.5712C49.3247 51.8419 49.5007 51.086 49.6248 49.4112ZM53.1537 69.6004C56.7987 67.3476 60.3087 66.1342 63.6855 63.7726C59.4738 60.1084 55.6307 56.7668 51.1574 52.8723C51.3529 58.8912 52.4477 63.966 53.1537 69.6004Z" fill="black" fill-opacity="0.1"></path></svg>