<svg xmlns="http://www.w3.org/2000/svg" width="119" height="116" viewBox="0 0 119 116" fill="none"><path d="M119 58.6012C118.835 72.8342 114.046 84.5981 105.706 95.064C101.067 100.883 95.5491 105.694 88.9658 109.215C78.5315 114.802 67.4141 116.898 55.6061 115.653C42.2667 114.25 30.4212 109.237 19.9719 101.047C10.4459 93.5721 4.44058 83.7477 1.65561 72.0286C-1.21194 59.9588 -0.386211 48.0831 4.38053 36.6101C7.48079 29.143 11.6245 22.2577 17.5773 16.6108C22.5542 11.8963 28.552 8.84526 34.8727 6.30898C42.0415 3.43701 49.5707 2.04949 57.1375 0.744052C73.5771 -2.0757 87.3143 3.25794 99.1523 14.3878C103.439 18.416 107.034 22.9664 110.06 28.0091C115.862 37.6694 118.677 48.1353 118.993 58.5788L119 58.6012ZM22.4491 76.855C22.374 75.5123 21.6484 75.005 20.2722 75.3332C21.1955 75.9374 21.8561 76.3627 22.5167 76.7953C24.6786 79.1899 26.8405 81.5919 29.0024 83.9864C29.1901 83.8447 29.3778 83.703 29.5654 83.5538C28.8298 82.3005 28.0791 81.0548 27.3585 79.7941C26.2775 77.8993 24.6335 76.9371 22.4566 76.8475L22.4491 76.855ZM44.0458 25.7787C44.6989 26.3307 45.5547 26.7633 45.945 27.4571C46.5831 28.576 46.9284 29.8591 47.3713 31.0825C49.5482 37.0875 51.7026 43.1075 53.9021 49.1051C54.1423 49.754 54.5852 50.321 54.938 50.9252C55.1557 50.8208 55.3659 50.7163 55.5836 50.6119C52.3632 42.1228 49.1429 33.6262 45.8925 25.0625C45.1793 25.3609 44.6313 25.5922 44.1059 25.8458C43.6855 26.3829 43.2576 26.92 42.8523 27.4422C43.648 28.4865 44.3911 29.4712 45.4871 30.9035C44.9016 28.8222 44.4737 27.3004 44.0458 25.7787ZM78.9669 88.2161C79.7701 88.9471 80.7234 89.5737 81.3465 90.439C83.2157 93.035 84.9497 95.7205 86.7438 98.3686C87.3443 99.2563 87.9749 100.122 88.628 101.062C89.2961 100.718 89.754 100.517 90.1668 100.256C90.5572 100.01 90.895 99.7039 91.3904 99.316C87.8173 94.6463 84.5669 89.9691 79.4773 86.4257C79.2672 87.2612 79.147 87.7685 79.0194 88.2683C78.3213 88.7755 78.1712 90.1854 76.6698 89.3499C75.6114 88.7606 75.1535 89.8721 75.4387 90.5658C75.9267 91.7594 76.4972 93.0723 78.0961 93.6467C78.0436 92.6993 77.9985 92.0205 77.961 91.3715C79.5224 91.6326 79.2972 94.0421 81.5792 93.6243C80.8736 92.565 80.243 91.8042 79.8302 90.9314C79.4248 90.081 79.2446 89.1261 78.9669 88.2086V88.2161ZM71.3476 93.6989C74.643 88.7084 77.5556 83.6955 79.3798 78.1008C79.8602 76.6312 79.8827 75.6167 78.8918 74.2665C75.679 69.9026 72.6162 65.4119 69.6211 60.8988C67.9095 58.3177 66.4232 55.5875 64.6967 52.6857C61.5514 55.5129 57.7981 54.4088 54.42 54.1105C50.8844 53.7972 47.4388 53.9314 44.0008 53.9464C40.0748 61.2792 36.2539 68.4256 32.4405 75.5421C33.619 76.9296 34.8051 78.1679 35.8035 79.533C39.0013 83.9193 42.1692 88.3279 45.2769 92.7739C46.2378 94.1539 47.3112 94.706 49.0678 94.5642C52.7911 94.2584 56.5369 94.2211 60.2753 94.0868C64.0061 93.9525 67.7294 93.8257 71.3551 93.7064L71.3476 93.6989ZM91.5781 27.1363C90.6548 27.2408 89.9567 27.2557 89.2886 27.4049C83.1856 28.7849 77.0827 30.1724 71.0023 31.6271C70.4093 31.7688 69.7562 32.291 69.4409 32.8206C68.938 33.671 68.5551 34.6482 68.36 35.618C67.4141 40.228 66.4908 44.853 65.6876 49.4929C65.5524 50.2986 65.8602 51.2907 66.2506 52.0516C70.1615 59.6679 75.0484 66.6725 80.1154 73.5578C80.4532 74.0203 81.0162 74.3261 81.0913 74.3933C83.8237 74.1769 86.1132 73.9084 88.4103 73.8263C91.2403 73.7219 94.0703 73.7965 96.9003 73.7443C99.7754 73.6921 99.858 73.6921 100.586 70.8499C102.005 65.3149 103.093 59.6754 104.775 54.2224C105.886 50.6268 105.983 47.6504 102.853 45.1141C102.478 44.8083 102.305 44.2712 101.99 43.8833C98.9872 40.1087 95.9545 36.3639 93.0044 32.5521C92.4939 31.8956 92.2312 31.0079 92.0135 30.1799C91.7883 29.3146 91.7508 28.397 91.5856 27.1363H91.5781ZM5.43897 52.4395C8.44164 59.5262 12.4953 65.8744 16.7065 72.1181C17.1044 72.7074 18.1853 73.0133 18.9885 73.1177C21.4807 73.4459 24.003 73.5578 26.4952 73.8637C27.9665 74.0427 29.4153 74.4231 31.0668 74.7514C34.4373 68.5002 37.7402 62.4131 40.9756 56.2961C41.2608 55.759 41.3284 54.9385 41.1482 54.3566C40.5252 52.3575 39.7595 50.403 39.0163 48.4411C37.0946 43.4133 35.1579 38.393 33.1011 33.0593H15.5655C12.3001 39.3105 8.87703 45.8675 5.43897 52.447V52.4395ZM103.964 22.7202C103.739 21.9071 103.746 21.5714 103.581 21.3626C95.7819 11.7844 86.0607 5.10796 73.9074 2.19869C73.1417 2.0122 72.1658 1.8481 71.5353 2.16141C70.2967 2.7731 69.2007 2.29564 68.0221 2.26581C63.4431 2.13153 58.7889 1.30352 54.5852 4.32468C52.9262 5.51823 50.6817 5.89124 48.7 6.6372C47.9568 6.91321 47.2136 7.1892 46.0951 7.59948C46.7332 9.58375 47.3037 11.4711 47.9493 13.336C49.0678 16.5735 50.3514 19.6767 54.1273 20.7658C54.6828 20.9299 55.1557 21.3924 55.6586 21.7206C59.3594 24.1748 63.1653 26.4948 66.7235 29.143C68.4125 30.4037 69.9589 30.4708 71.798 30.0158C77.0827 28.7103 82.3674 27.4049 87.6746 26.1815C92.0435 25.167 92.1261 25.167 92.0285 20.6091C92.006 19.5722 91.6607 18.5353 91.3979 17.1478C92.1186 17.0956 92.9593 16.7749 93.4773 17.0509C96.0521 18.4234 98.5368 19.9676 101.074 21.4073C101.877 21.8624 102.763 22.1831 103.964 22.7277V22.7202ZM99.4376 99.6144C99.3025 99.4428 99.1749 99.2638 99.0397 99.0923C97.9288 99.8904 96.8178 100.681 95.7218 101.494C95.2414 101.845 94.8435 102.457 94.318 102.583C91.8333 103.173 89.4687 103.844 87.5921 105.791C87.2017 106.194 85.798 106.06 85.1374 105.687C83.6586 104.851 82.3074 103.777 80.9937 102.688C78.6666 100.763 76.4822 98.6521 74.08 96.8245C73.1117 96.086 71.738 95.4594 70.5594 95.4818C62.7825 95.631 55.0056 95.9144 47.2362 96.3172C46.0426 96.3769 44.7064 97.0483 43.7681 97.8316C41.5386 99.6965 39.5118 101.8 37.3349 103.866C37.8378 105.254 38.4759 106.627 38.8362 108.074C39.2716 109.804 40.2624 110.707 41.959 111.259C52.7611 114.772 63.7208 115.556 74.8157 113.034C84.2741 110.879 92.4789 106.336 99.4376 99.6293V99.6144ZM44.2185 7.51744C40.9531 7.26381 37.3649 7.2265 34.0995 8.34545C28.5445 10.2402 23.5 13.2614 19.1237 17.1777C17.2094 18.8934 15.07 20.8851 14.2818 23.1753C13.4261 25.6593 13.4936 28.6507 13.944 31.0527C20.0019 31.2242 25.7445 31.2988 31.4721 31.6047C33.8517 31.7315 35.6909 31.1347 37.4775 29.5458C40.0222 27.2781 42.8072 25.2714 45.4871 23.1529C46.7257 22.1682 47.9568 21.1761 49.0603 20.2884C47.4313 15.9842 45.9075 11.9783 44.2185 7.51744ZM112.199 35.5061C111.906 35.5061 111.613 35.4986 111.328 35.4912C110.3 39.2434 109.241 42.9806 108.265 46.7403C106.351 54.1105 104.535 61.503 102.583 68.8657C101.922 71.3572 101.9 73.6846 102.538 76.2433C104.039 82.3006 105.075 88.4548 102.102 94.512C103.837 95.5116 104.52 94.1688 105.27 93.1842C108.333 89.1858 110.93 84.9189 113.01 80.3237C113.805 78.5632 114.023 77.1683 112.89 75.3631C111.688 73.4385 111.013 71.1707 110.292 68.985C109.992 68.075 109.909 66.9262 110.18 66.0161C111.306 62.2564 113.055 58.8101 116.08 55.4085C115.937 56.699 115.517 57.6687 115.832 58.1238C117.063 59.8992 116.23 61.6522 116.012 63.3754C115.69 65.9415 115.164 68.4927 114.684 71.0364C114.601 71.4915 114.346 71.9316 114.113 72.3493C113.505 73.4459 113.498 73.4385 114.901 74.9602C119.105 61.2494 117.664 48.2173 112.199 35.4837V35.5061ZM3.08188 52.3947C4.65828 50.873 6.15961 49.478 4.74085 47.2252C4.5682 46.9567 4.72584 46.427 4.83093 46.0466C5.50654 43.5327 6.07704 40.9815 6.9253 38.5198C7.99875 35.4017 9.0647 32.2835 11.5644 29.8293C12.2926 29.1206 12.18 27.5615 12.4502 26.3904C-3.05859 46.151 -1.48969 76.8998 14.7623 93.684C15.7607 92.9903 16.8041 92.2666 17.9526 91.4685C17.1944 86.4034 16.4963 81.4576 15.6856 76.5342C15.4153 74.8782 15.1601 73.0879 14.3569 71.6631C10.7162 65.203 6.87275 58.8548 3.07437 52.4022L3.08188 52.3947ZM18.1628 93.2961C17.5397 93.7511 16.684 94.3703 15.6706 95.1013C22.0212 101.487 29.1601 106.082 37.455 109.394C36.8319 106.231 36.0587 104.605 34.6249 103.695C29.2201 100.248 23.7853 96.8469 18.1628 93.2961ZM55.9664 23.8839C57.2576 27.5616 58.301 30.523 59.382 33.6039C60.7782 33.1041 61.4238 33.6412 61.8141 34.9765C62.6624 37.8857 63.6908 40.7428 64.7567 43.9579C65.8377 39.7059 66.8136 35.8492 67.857 31.7464C65.9953 30.5156 64.0286 29.2176 61.7015 27.6734C61.8066 31.0004 65.3273 32.5446 64.5541 35.9984C61.0034 33.5367 60.4104 29.7994 59.3444 26.0845C58.5412 25.5623 57.5653 24.9283 55.9589 23.8839H55.9664ZM57.9857 50.8431C58.2109 50.7536 58.4286 50.6641 58.6538 50.5746C58.3761 49.6645 58.1509 48.7395 57.8131 47.8593C55.3133 41.3097 52.8361 34.7526 50.2614 28.2329C49.5632 26.4575 48.8651 24.794 50.1863 23.0186C50.3139 22.847 50.1262 22.4517 50.0286 21.743C48.9101 22.5412 47.9718 23.2051 47.0185 23.8839C47.9718 26.2636 48.8801 28.4716 49.7359 30.6946C50.6292 33.0295 51.4549 35.3942 52.3257 37.744C53.1664 39.9968 53.9321 42.2795 54.893 44.4801C55.8313 46.6434 56.3568 49.0603 57.9857 50.8506V50.8431ZM100.474 92.6546C99.1899 91.558 98.4017 90.4166 97.8837 90.5285C96.0896 90.9164 95.5867 89.6334 94.821 88.6711C92.0135 85.1427 89.2435 81.5844 86.4285 78.0635C86.0006 77.5264 85.3926 77.1235 84.8746 76.6536C84.672 76.8401 84.4693 77.0191 84.2666 77.2056C86.909 82.7854 91.8559 86.6719 95.6542 91.5057C94.9861 91.916 94.4832 92.2219 93.8751 92.5949C94.851 93.7586 95.6692 94.7358 96.3824 95.5862C97.7336 94.6164 98.9271 93.7586 100.466 92.6471L100.474 92.6546ZM18.2153 80.0701C17.7649 82.1737 18.7483 83.0391 19.7317 83.8895C25.5719 88.977 31.4121 94.057 37.2823 99.1221C37.6201 99.413 38.1756 99.4727 38.626 99.6368C37.1472 97.4213 35.4056 95.631 33.5665 93.9376C28.6346 89.3872 22.8094 85.829 18.2153 80.0701ZM61.9192 47.5012C62.0994 47.4042 62.2795 47.3147 62.4597 47.2177C62.4372 46.9343 62.4822 46.621 62.3771 46.3673C60.8082 42.8016 59.2018 39.2508 57.6554 35.6777C57.3477 34.9615 57.22 34.1559 57.0549 33.3801C56.7246 31.8508 56.5895 30.2619 56.0715 28.7998C55.4485 27.0319 53.9997 25.4132 53.8646 23.6527C53.7369 21.937 52.8662 21.8325 51.2072 21.0194C54.0447 30.6051 58.2485 38.945 61.9267 47.5012H61.9192ZM41.7037 50.9998C42.7096 50.4329 42.4469 49.7018 42.1917 48.8887C41.3284 46.1137 40.5477 43.3163 39.6995 40.5413C39.0539 38.4302 38.3558 36.3416 37.6952 34.238C37.4249 33.3876 36.7794 33.0668 36.0812 33.4696C35.7059 33.6859 35.3906 34.4617 35.4732 34.9093C35.6534 35.8791 36.0812 36.8115 36.4491 37.7365C38.1756 42.1154 39.9171 46.4942 41.7037 51.0073V50.9998ZM45.6523 46.33C45.8699 46.33 46.0951 46.345 46.3128 46.345C46.6581 45.778 47.4013 45.1141 47.2962 44.6516C46.4555 41.0635 45.4721 37.5127 44.4512 33.9768C44.3686 33.6934 43.6029 33.3801 43.2576 33.4696C42.9273 33.5591 42.582 34.1186 42.4994 34.5288C42.4019 34.9913 42.522 35.5359 42.6571 36.0059C43.6405 39.4523 44.6539 42.8911 45.6598 46.33H45.6523ZM22.4791 89.335C22.3215 89.5961 22.1639 89.8497 22.0062 90.1108C24.3633 92.2219 26.7129 94.3479 29.085 96.444C31.3971 98.4805 33.3788 100.95 36.6367 102.83C35.5633 100.256 29.1901 93.9376 24.3783 90.3197C23.8153 89.9019 23.1172 89.6632 22.4791 89.3425V89.335ZM108.911 35.8343C109.136 35.8865 109.369 35.9387 109.594 35.991C109.872 34.596 110.788 32.9101 110.3 31.8583C109.016 29.0609 107.139 26.5321 105.45 23.9212C105.285 23.6676 104.835 23.6079 103.942 23.1827C105.736 27.7555 107.32 31.7912 108.904 35.8269L108.911 35.8343ZM6.67007 45.7333C8.57676 42.5182 10.1382 39.967 11.617 37.3636C12.8781 35.1406 12.833 34.141 11.5944 31.6494C9.22234 35.9238 7.62342 40.3772 6.67007 45.7333ZM30.6914 80.3759C30.4362 80.6147 30.1735 80.8608 29.9183 81.0995C34.1745 86.008 38.4308 90.909 42.7847 95.9293C43.1525 95.34 43.4978 94.9372 43.4378 94.8626C39.3692 89.8721 35.0828 85.083 30.6839 80.3834L30.6914 80.3759ZM17.87 76.5193C17.7424 76.7655 17.6148 77.0117 17.4872 77.2653C17.6148 77.6233 17.6448 78.0858 17.8925 78.3171C19.0486 79.3838 20.2872 80.361 21.4507 81.4128C22.6443 82.487 23.7553 83.6582 24.9789 84.7025C25.7821 85.3888 26.6078 85.3963 27.426 83.8298C25.1515 81.7336 22.8244 79.4957 20.3773 77.407C19.7467 76.8699 18.7183 76.8028 17.87 76.5193ZM99.1824 88.8576C99.4526 88.2981 99.5502 88.1937 99.5352 88.1191C98.7545 84.4042 96.3599 81.5098 94.4156 78.4066C94.1229 77.9366 92.9218 78.0187 92.1411 77.8471C92.0585 78.0261 91.976 78.1977 91.8934 78.3768C94.258 81.7784 96.6226 85.18 99.1824 88.865V88.8576ZM46.4179 33.7083C48.805 44.6367 50.5841 49.7168 52.7761 51.3057C50.9895 45.0023 48.6024 39.3776 46.4179 33.7083ZM101.742 90.1257C102.643 85.8439 102.425 81.5919 100.864 77.4219C99.2574 81.7336 101.314 85.8737 101.742 90.1257ZM81.9095 80.9429C81.1363 82.6288 80.6559 83.6806 80.1905 84.7025C82.4425 86.7316 84.4693 88.5518 86.4961 90.3719C86.6162 90.2749 86.7363 90.1779 86.8564 90.0735C85.3251 87.2463 83.8012 84.4265 81.917 80.9354L81.9095 80.9429ZM27.914 85.0905C28.1617 86.8808 28.7547 87.9027 29.8207 88.7606C33.4239 91.6549 37.0571 94.5344 39.6169 98.4731C39.6619 98.5477 39.9697 98.4507 40.3525 98.4134C40.3225 98.0628 40.4276 97.5854 40.2399 97.3765C36.434 93.1842 32.5981 89.0292 27.9065 85.0979L27.914 85.0905ZM37.9279 86.0527C38.093 85.9035 38.2582 85.7544 38.4308 85.6126C36.5767 83.1659 34.7976 80.6594 32.8308 78.3021C31.1118 76.2358 29.3628 75.6838 26.833 76.3104C27.8164 77.0638 28.507 77.9963 29.3402 78.1455C31.7874 78.5782 32.9735 80.4207 34.3922 82.0469C35.5633 83.3896 36.7418 84.7175 37.9204 86.0527H37.9279ZM99.295 25.2714C98.9121 30.3738 100.368 36.6101 102.313 37.9678C101.982 35.9015 101.217 33.9768 101.487 32.2089C101.9 29.5085 100.398 27.7779 99.295 25.2714ZM103.641 33.6785C103.521 34.3648 103.446 34.5587 103.469 34.7452C103.619 35.9387 103.784 37.1248 103.949 38.3184C104.317 40.9069 104.752 41.3246 107.973 42.0109C107.305 38.945 105.773 36.4684 103.641 33.6785ZM115.427 58.8474C111.959 64.278 110.382 67.9108 112.95 70.6262C113.745 66.8441 114.519 63.1516 115.427 58.8474ZM39.7895 33.7903C39.7145 36.4012 42.9574 47.076 44.8415 49.6421C43.4228 44.3756 42.1767 39.7058 40.9005 35.0361C40.8029 34.6631 40.5627 34.32 40.33 34.0067C40.2324 33.8724 39.9772 33.8575 39.7895 33.7903ZM106.028 34.1932C105.495 29.9785 103.379 25.5698 101.344 24.4583C101.847 28.1956 103.814 30.9408 106.028 34.1932ZM85.9631 75.2586C88.5379 78.3842 90.7749 81.0921 93.0119 83.7999C93.1695 83.6881 93.3347 83.5761 93.4923 83.4643C91.6682 80.8012 89.8666 78.1082 87.9674 75.4973C87.7647 75.2213 86.984 75.3631 85.9631 75.2586ZM40.7279 30.6051C41.7112 31.0601 41.9139 33.1414 43.7756 31.8807C43.085 30.62 42.4319 29.4414 41.6962 28.0912C40.2549 29.2549 39.0464 30.2321 37.7928 31.2541C39.3466 32.7236 39.9322 31.1944 40.7354 30.5976L40.7279 30.6051ZM86.8039 102.046C85.5052 99.592 84.4167 97.011 81.6468 94.8178C82.5551 98.0553 84.672 101.084 86.8039 102.046ZM97.2682 26.0771C96.0371 29.2027 96.5625 32.0075 98.3717 33.6785C97.9888 31.0228 97.6285 28.5462 97.2682 26.0771ZM48.0394 46.6881C47.1686 48.2994 46.1177 49.2095 47.071 50.5821C47.7841 51.604 48.715 51.3728 49.9386 50.8133C49.353 49.5377 48.8126 48.374 48.0394 46.6881ZM107.44 43.8012C106.111 43.846 105.218 42.1676 103.994 43.846C104.677 45.0172 105.038 46.3674 106.516 47.0984C106.817 46.0168 107.057 45.1589 107.44 43.7938V43.8012ZM21.8486 88.8203C21.9311 88.5816 22.0062 88.3428 22.0888 88.1041C21.0078 87.4477 20.4673 86.1124 18.7633 85.7618C18.8759 87.112 18.9585 88.1862 19.0561 89.4171C20.107 89.1933 20.9778 89.0068 21.8486 88.8203ZM26.1499 96.541C26.27 96.362 26.3826 96.1904 26.5027 96.0114C24.626 94.5195 22.7494 93.0275 20.8802 91.5356C20.7151 91.737 20.5499 91.9459 20.3923 92.1473C21.9462 94.057 24.0555 95.2952 26.1574 96.5336L26.1499 96.541ZM94.6483 75.281C97.3808 77.1459 97.8011 77.0862 98.0864 75.281H94.6483ZM93.665 19.1843V23.8839C94.3556 22.6456 95.0162 21.4595 95.7668 20.1168C95.3014 19.9079 94.6258 19.6095 93.665 19.1843ZM60.2152 35.4613C59.99 35.5359 59.7648 35.6031 59.5396 35.6777C59.8774 37.4232 60.4479 39.0718 61.9868 40.3548C61.3938 38.7212 60.8082 37.095 60.2152 35.4613ZM58.9015 44.8232C58.7289 44.8978 58.5562 44.9649 58.3761 45.0395C59.0817 46.8448 59.7873 48.65 60.493 50.4553C60.7332 50.3583 60.9734 50.2613 61.2136 50.1643C60.4404 48.3889 59.6672 46.606 58.9015 44.8306V44.8232ZM96.1722 78.0635C96.9754 79.3316 97.4934 80.1447 98.2816 81.3904C98.2315 79.3366 97.5284 78.2276 96.1722 78.0635ZM94.3406 30.2321C94.8735 28.4418 95.0987 27.3154 94.0553 25.9801C93.162 27.4571 93.1395 28.5462 94.3406 30.2321ZM93.3347 76.0792C91.9634 75.3879 90.6072 75.3879 89.266 76.0792H93.3347ZM94.4757 97.1527C94.7159 96.9662 94.9561 96.7723 95.1963 96.5858C94.4081 95.6757 93.6274 94.7656 92.8392 93.863C92.6966 93.9749 92.554 94.0942 92.4113 94.2061C93.102 95.1908 93.7851 96.1755 94.4757 97.1527ZM76.227 95.3102C76.0168 95.5042 75.8141 95.7056 75.6039 95.8995C76.2194 96.362 76.835 96.8245 77.4505 97.287C77.5781 97.1303 77.7058 96.9811 77.8334 96.8245C77.3004 96.3172 76.7599 95.81 76.227 95.3027V95.3102ZM44.2185 5.51825C44.1584 5.34668 44.0984 5.17511 44.0383 5.00354C43.3402 5.2497 42.6421 5.49586 41.944 5.73457C41.9965 5.89868 42.049 6.05535 42.1091 6.21946C42.8147 5.98821 43.5128 5.75696 44.2185 5.51825ZM98.5293 21.6013C98.3566 21.6535 98.184 21.6982 98.0038 21.7504C98.1089 22.2129 98.214 22.668 98.3191 23.1305C98.5443 23.0634 98.7695 22.9962 99.0022 22.9291C98.8446 22.4815 98.6869 22.0414 98.5293 21.5938V21.6013Z" fill="black" fill-opacity="0.1"></path></svg>