<svg xmlns="http://www.w3.org/2000/svg" width="98" height="107" viewBox="0 0 98 107" fill="none"><path d="M45.3449 106.113C46.1743 102.097 46.3162 98.4575 45.7869 94.8451C45.2685 91.2927 44.5209 87.7731 43.8279 83.9642C43.0912 84.3899 42.42 84.7609 41.7652 85.1647C37.8963 87.5384 36.5103 87.5603 32.5596 85.3175C28.4233 82.9656 24.8163 80.008 21.9624 76.1664C21.133 75.0478 20.2926 73.9237 19.3268 72.9251C18.481 72.0465 18.3336 71.228 18.8848 70.1639C19.5887 68.8107 20.2163 67.4137 20.8711 66.044C19.6542 65.291 14.3938 64.8708 10.705 65.422C7.40365 65.9185 4.14048 66.6825 0.74088 67.3537C0.326161 66.2896 0.817281 65.2583 1.36297 64.3688C3.08732 61.564 4.75165 58.6883 6.75976 56.0908C9.6355 52.3638 12.9314 49.0133 16.8712 46.3559C20.1453 44.1513 23.6431 42.5688 27.6539 42.3124C28.5979 42.2523 29.5365 42.045 30.4696 41.854C31.4464 41.6521 32.1121 41.1119 32.6141 40.1787C36.7013 32.5883 42.0872 26.062 48.7445 20.5779C56.0348 14.5699 64.28 10.4064 73.191 7.3833C77.9439 5.77354 82.795 4.76403 87.728 4.00007C89.938 3.65629 91.9733 2.94691 93.534 1.16799C94.2707 0.32764 95.2147 -0.359919 96.448 0.20759C97.321 0.611394 97.7412 1.99197 97.0373 3.36708C94.9201 7.53609 95.0455 11.9998 94.8982 16.4798C94.6854 22.9898 93.0866 29.2269 90.7347 35.2949C86.3474 46.6287 79.3627 56.1181 70.4299 64.2487C68.8528 65.6839 67.314 67.1627 65.6388 68.4669C64.7166 69.1872 64.5256 69.9784 64.7766 70.9661C66.3591 77.1705 64.6183 82.6982 61.4152 87.9641C58.6759 92.4605 55.0307 96.182 51.451 99.98C49.8413 101.688 48.3352 103.483 46.7527 105.213C46.4963 105.491 46.0979 105.644 45.3558 106.108L45.3449 106.113ZM95.6894 1.17344C95.2693 1.40809 94.7509 1.54997 94.4508 1.88829C92.4699 4.13104 89.807 4.84043 87.024 5.2988C84.6394 5.69169 82.1784 5.82811 79.8811 6.49929C70.4844 9.24407 61.3497 12.6164 53.35 18.4825C47.9423 22.4496 42.9548 26.8696 38.9659 32.2991C36.8377 35.1912 34.835 38.1761 32.8979 41.2046C31.9975 42.6125 30.8188 43.0709 29.2582 43.1691C25.4602 43.4092 21.9079 44.4896 18.6829 46.5632C12.5167 50.5358 7.83476 55.9271 3.93313 62.0497C3.16919 63.2447 2.5471 64.527 1.71221 66.0222C8.79516 63.8886 15.5889 63.8504 22.8028 64.6853C21.6296 67.1463 20.6092 69.2854 19.7252 71.1407C24.0688 78.0599 29.7166 83.042 36.9414 86.4252C39.386 85.4758 41.5415 83.4895 44.4991 82.5236C45.2521 86.0433 46.1307 89.2955 46.6 92.6133C47.0692 95.9092 47.1238 99.2597 47.3694 102.676C47.604 102.523 47.8005 102.446 47.9314 102.305C50.3543 99.6471 52.788 97.0005 55.1781 94.3158C58.4631 90.6215 61.4097 86.6817 63.0468 81.9507C63.8871 79.5278 64.531 77.0286 64.3128 74.4093C64.1873 72.8814 64.1054 71.3426 63.8762 69.8256C63.718 68.7943 64.1436 68.2486 64.8966 67.6211C69.6877 63.6048 74.266 59.354 78.1731 54.4538C88.0226 42.105 94.036 28.3211 93.8669 12.2289C93.8341 9.1895 94.2707 6.221 95.7822 3.49805C96.1806 2.7832 96.5025 2.04108 95.684 1.17344L95.6894 1.17344Z" fill="black" fill-opacity="0.1"></path></svg>